<svg width="896" height="486" viewBox="0 0 896 486" version="1.1" xmlns="http://www.w3.org/2000/svg" xmlns:xlink="http://www.w3.org/1999/xlink">
<g id="Canvas" fill="none">
<g id="designs">
<g id="Line">
<line y1="-1.5" x2="590" y2="-1.5" stroke-width="3" transform="matrix(1 8.74228e-08 -8.74228e-08 1 153 186)" stroke="black"/>
</g>
<g id="Group">
<g id="Rectangle">
<rect width="153" height="49" transform="translate(0 161)" fill="#DEDDDD"/>
<rect x="1.5" y="1.5" width="150" height="46" stroke-width="3" transform="translate(0 161)" stroke="black"/>
</g>
<g id="Exposure">
<path d="M 38.6484 25.1133L 31.2539 25.1133L 31.2539 31.1602L 39.8438 31.1602L 39.8438 33L 29.0039 33L 29.0039 15.9375L 39.7266 15.9375L 39.7266 17.7891L 31.2539 17.7891L 31.2539 23.2734L 38.6484 23.2734L 38.6484 25.1133ZM 46.5586 24.9492L 49.3711 20.3203L 51.9023 20.3203L 47.7539 26.5898L 52.0312 33L 49.5234 33L 46.5938 28.2539L 43.6641 33L 41.1445 33L 45.4219 26.5898L 41.2734 20.3203L 43.7812 20.3203L 46.5586 24.9492ZM 64.9219 26.8008C 64.9219 28.7305 64.4805 30.2852 63.5977 31.4648C 62.7148 32.6445 61.5195 33.2344 60.0117 33.2344C 58.4727 33.2344 57.2617 32.7461 56.3789 31.7695L 56.3789 37.875L 54.2109 37.875L 54.2109 20.3203L 56.1914 20.3203L 56.2969 21.7266C 57.1797 20.6328 58.4062 20.0859 59.9766 20.0859C 61.5 20.0859 62.7031 20.6602 63.5859 21.8086C 64.4766 22.957 64.9219 24.5547 64.9219 26.6016L 64.9219 26.8008ZM 62.7539 26.5547C 62.7539 25.125 62.4492 23.9961 61.8398 23.168C 61.2305 22.3398 60.3945 21.9258 59.332 21.9258C 58.0195 21.9258 57.0352 22.5078 56.3789 23.6719L 56.3789 29.7305C 57.0273 30.8867 58.0195 31.4648 59.3555 31.4648C 60.3945 31.4648 61.2188 31.0547 61.8281 30.2344C 62.4453 29.4062 62.7539 28.1797 62.7539 26.5547ZM 67.1133 26.543C 67.1133 25.3008 67.3555 24.1836 67.8398 23.1914C 68.332 22.1992 69.0117 21.4336 69.8789 20.8945C 70.7539 20.3555 71.75 20.0859 72.8672 20.0859C 74.5938 20.0859 75.9883 20.6836 77.0508 21.8789C 78.1211 23.0742 78.6562 24.6641 78.6562 26.6484L 78.6562 26.8008C 78.6562 28.0352 78.418 29.1445 77.9414 30.1289C 77.4727 31.1055 76.7969 31.8672 75.9141 32.4141C 75.0391 32.9609 74.0312 33.2344 72.8906 33.2344C 71.1719 33.2344 69.7773 32.6367 68.707 31.4414C 67.6445 30.2461 67.1133 28.6641 67.1133 26.6953L 67.1133 26.543ZM 69.293 26.8008C 69.293 28.207 69.6172 29.3359 70.2656 30.1875C 70.9219 31.0391 71.7969 31.4648 72.8906 31.4648C 73.9922 31.4648 74.8672 31.0352 75.5156 30.1758C 76.1641 29.3086 76.4883 28.0977 76.4883 26.543C 76.4883 25.1523 76.1562 24.0273 75.4922 23.168C 74.8359 22.3008 73.9609 21.8672 72.8672 21.8672C 71.7969 21.8672 70.9336 22.293 70.2773 23.1445C 69.6211 23.9961 69.293 25.2148 69.293 26.8008ZM 88.7578 29.6367C 88.7578 29.0508 88.5352 28.5977 88.0898 28.2773C 87.6523 27.9492 86.8828 27.668 85.7812 27.4336C 84.6875 27.1992 83.8164 26.918 83.168 26.5898C 82.5273 26.2617 82.0508 25.8711 81.7383 25.418C 81.4336 24.9648 81.2812 24.4258 81.2812 23.8008C 81.2812 22.7617 81.7188 21.8828 82.5938 21.1641C 83.4766 20.4453 84.6016 20.0859 85.9688 20.0859C 87.4062 20.0859 88.5703 20.457 89.4609 21.1992C 90.3594 21.9414 90.8086 22.8906 90.8086 24.0469L 88.6289 24.0469C 88.6289 23.4531 88.375 22.9414 87.8672 22.5117C 87.3672 22.082 86.7344 21.8672 85.9688 21.8672C 85.1797 21.8672 84.5625 22.0391 84.1172 22.3828C 83.6719 22.7266 83.4492 23.1758 83.4492 23.7305C 83.4492 24.2539 83.6562 24.6484 84.0703 24.9141C 84.4844 25.1797 85.2305 25.4336 86.3086 25.6758C 87.3945 25.918 88.2734 26.207 88.9453 26.543C 89.6172 26.8789 90.1133 27.2852 90.4336 27.7617C 90.7617 28.2305 90.9258 28.8047 90.9258 29.4844C 90.9258 30.6172 90.4727 31.5273 89.5664 32.2148C 88.6602 32.8945 87.4844 33.2344 86.0391 33.2344C 85.0234 33.2344 84.125 33.0547 83.3438 32.6953C 82.5625 32.3359 81.9492 31.8359 81.5039 31.1953C 81.0664 30.5469 80.8477 29.8477 80.8477 29.0977L 83.0156 29.0977C 83.0547 29.8242 83.3438 30.4023 83.8828 30.832C 84.4297 31.2539 85.1484 31.4648 86.0391 31.4648C 86.8594 31.4648 87.5156 31.3008 88.0078 30.9727C 88.5078 30.6367 88.7578 30.1914 88.7578 29.6367ZM 101.578 31.7461C 100.734 32.7383 99.4961 33.2344 97.8633 33.2344C 96.5117 33.2344 95.4805 32.8438 94.7695 32.0625C 94.0664 31.2734 93.7109 30.1094 93.7031 28.5703L 93.7031 20.3203L 95.8711 20.3203L 95.8711 28.5117C 95.8711 30.4336 96.6523 31.3945 98.2148 31.3945C 99.8711 31.3945 100.973 30.7773 101.52 29.543L 101.52 20.3203L 103.688 20.3203L 103.688 33L 101.625 33L 101.578 31.7461ZM 113.121 22.2656C 112.793 22.2109 112.438 22.1836 112.055 22.1836C 110.633 22.1836 109.668 22.7891 109.16 24L 109.16 33L 106.992 33L 106.992 20.3203L 109.102 20.3203L 109.137 21.7852C 109.848 20.6523 110.855 20.0859 112.16 20.0859C 112.582 20.0859 112.902 20.1406 113.121 20.25L 113.121 22.2656ZM 120.152 33.2344C 118.434 33.2344 117.035 32.6719 115.957 31.5469C 114.879 30.4141 114.34 28.9023 114.34 27.0117L 114.34 26.6133C 114.34 25.3555 114.578 24.2344 115.055 23.25C 115.539 22.2578 116.211 21.4844 117.07 20.9297C 117.938 20.3672 118.875 20.0859 119.883 20.0859C 121.531 20.0859 122.812 20.6289 123.727 21.7148C 124.641 22.8008 125.098 24.3555 125.098 26.3789L 125.098 27.2812L 116.508 27.2812C 116.539 28.5312 116.902 29.543 117.598 30.3164C 118.301 31.082 119.191 31.4648 120.27 31.4648C 121.035 31.4648 121.684 31.3086 122.215 30.9961C 122.746 30.6836 123.211 30.2695 123.609 29.7539L 124.934 30.7852C 123.871 32.418 122.277 33.2344 120.152 33.2344ZM 119.883 21.8672C 119.008 21.8672 118.273 22.1875 117.68 22.8281C 117.086 23.4609 116.719 24.3516 116.578 25.5L 122.93 25.5L 122.93 25.3359C 122.867 24.2344 122.57 23.3828 122.039 22.7812C 121.508 22.1719 120.789 21.8672 119.883 21.8672Z" transform="translate(0 161)" fill="black"/>
</g>
</g>
<g id="Group_2">
<g id="Rectangle_2">
<rect width="153" height="49" transform="translate(743 161)" fill="#DEDDDD"/>
<rect x="1.5" y="1.5" width="150" height="46" stroke-width="3" transform="translate(743 161)" stroke="black"/>
</g>
<g id="Outcome">
<path d="M 42.7969 25.0195C 42.7969 26.6914 42.5156 28.1523 41.9531 29.4023C 41.3906 30.6445 40.5938 31.5938 39.5625 32.25C 38.5312 32.9062 37.3281 33.2344 35.9531 33.2344C 34.6094 33.2344 33.418 32.9062 32.3789 32.25C 31.3398 31.5859 30.5312 30.6445 29.9531 29.4258C 29.3828 28.1992 29.0898 26.7812 29.0742 25.1719L 29.0742 23.9414C 29.0742 22.3008 29.3594 20.8516 29.9297 19.5938C 30.5 18.3359 31.3047 17.375 32.3438 16.7109C 33.3906 16.0391 34.5859 15.7031 35.9297 15.7031C 37.2969 15.7031 38.5 16.0352 39.5391 16.6992C 40.5859 17.3555 41.3906 18.3125 41.9531 19.5703C 42.5156 20.8203 42.7969 22.2773 42.7969 23.9414L 42.7969 25.0195ZM 40.5586 23.918C 40.5586 21.8945 40.1523 20.3438 39.3398 19.2656C 38.5273 18.1797 37.3906 17.6367 35.9297 17.6367C 34.5078 17.6367 33.3867 18.1797 32.5664 19.2656C 31.7539 20.3438 31.3359 21.8438 31.3125 23.7656L 31.3125 25.0195C 31.3125 26.9805 31.7227 28.5234 32.543 29.6484C 33.3711 30.7656 34.5078 31.3242 35.9531 31.3242C 37.4062 31.3242 38.5312 30.7969 39.3281 29.7422C 40.125 28.6797 40.5352 27.1602 40.5586 25.1836L 40.5586 23.918ZM 53.6602 31.7461C 52.8164 32.7383 51.5781 33.2344 49.9453 33.2344C 48.5938 33.2344 47.5625 32.8438 46.8516 32.0625C 46.1484 31.2734 45.793 30.1094 45.7852 28.5703L 45.7852 20.3203L 47.9531 20.3203L 47.9531 28.5117C 47.9531 30.4336 48.7344 31.3945 50.2969 31.3945C 51.9531 31.3945 53.0547 30.7773 53.6016 29.543L 53.6016 20.3203L 55.7695 20.3203L 55.7695 33L 53.707 33L 53.6602 31.7461ZM 62.0156 17.25L 62.0156 20.3203L 64.3828 20.3203L 64.3828 21.9961L 62.0156 21.9961L 62.0156 29.8594C 62.0156 30.3672 62.1211 30.75 62.332 31.0078C 62.543 31.2578 62.9023 31.3828 63.4102 31.3828C 63.6602 31.3828 64.0039 31.3359 64.4414 31.2422L 64.4414 33C 63.8711 33.1562 63.3164 33.2344 62.7773 33.2344C 61.8086 33.2344 61.0781 32.9414 60.5859 32.3555C 60.0938 31.7695 59.8477 30.9375 59.8477 29.8594L 59.8477 21.9961L 57.5391 21.9961L 57.5391 20.3203L 59.8477 20.3203L 59.8477 17.25L 62.0156 17.25ZM 72.0117 31.4648C 72.7852 31.4648 73.4609 31.2305 74.0391 30.7617C 74.6172 30.293 74.9375 29.707 75 29.0039L 77.0508 29.0039C 77.0117 29.7305 76.7617 30.4219 76.3008 31.0781C 75.8398 31.7344 75.2227 32.2578 74.4492 32.6484C 73.6836 33.0391 72.8711 33.2344 72.0117 33.2344C 70.2852 33.2344 68.9102 32.6602 67.8867 31.5117C 66.8711 30.3555 66.3633 28.7773 66.3633 26.7773L 66.3633 26.4141C 66.3633 25.1797 66.5898 24.082 67.043 23.1211C 67.4961 22.1602 68.1445 21.4141 68.9883 20.8828C 69.8398 20.3516 70.8438 20.0859 72 20.0859C 73.4219 20.0859 74.6016 20.5117 75.5391 21.3633C 76.4844 22.2148 76.9883 23.3203 77.0508 24.6797L 75 24.6797C 74.9375 23.8594 74.625 23.1875 74.0625 22.6641C 73.5078 22.1328 72.8203 21.8672 72 21.8672C 70.8984 21.8672 70.043 22.2656 69.4336 23.0625C 68.832 23.8516 68.5312 24.9961 68.5312 26.4961L 68.5312 26.9062C 68.5312 28.3672 68.832 29.4922 69.4336 30.2812C 70.0352 31.0703 70.8945 31.4648 72.0117 31.4648ZM 78.9141 26.543C 78.9141 25.3008 79.1562 24.1836 79.6406 23.1914C 80.1328 22.1992 80.8125 21.4336 81.6797 20.8945C 82.5547 20.3555 83.5508 20.0859 84.668 20.0859C 86.3945 20.0859 87.7891 20.6836 88.8516 21.8789C 89.9219 23.0742 90.457 24.6641 90.457 26.6484L 90.457 26.8008C 90.457 28.0352 90.2188 29.1445 89.7422 30.1289C 89.2734 31.1055 88.5977 31.8672 87.7148 32.4141C 86.8398 32.9609 85.832 33.2344 84.6914 33.2344C 82.9727 33.2344 81.5781 32.6367 80.5078 31.4414C 79.4453 30.2461 78.9141 28.6641 78.9141 26.6953L 78.9141 26.543ZM 81.0938 26.8008C 81.0938 28.207 81.418 29.3359 82.0664 30.1875C 82.7227 31.0391 83.5977 31.4648 84.6914 31.4648C 85.793 31.4648 86.668 31.0352 87.3164 30.1758C 87.9648 29.3086 88.2891 28.0977 88.2891 26.543C 88.2891 25.1523 87.957 24.0273 87.293 23.168C 86.6367 22.3008 85.7617 21.8672 84.668 21.8672C 83.5977 21.8672 82.7344 22.293 82.0781 23.1445C 81.4219 23.9961 81.0938 25.2148 81.0938 26.8008ZM 95.2148 20.3203L 95.2734 21.7266C 96.2031 20.6328 97.457 20.0859 99.0352 20.0859C 100.809 20.0859 102.016 20.7656 102.656 22.125C 103.078 21.5156 103.625 21.0234 104.297 20.6484C 104.977 20.2734 105.777 20.0859 106.699 20.0859C 109.48 20.0859 110.895 21.5586 110.941 24.5039L 110.941 33L 108.773 33L 108.773 24.6328C 108.773 23.7266 108.566 23.0508 108.152 22.6055C 107.738 22.1523 107.043 21.9258 106.066 21.9258C 105.262 21.9258 104.594 22.168 104.062 22.6523C 103.531 23.1289 103.223 23.7734 103.137 24.5859L 103.137 33L 100.957 33L 100.957 24.6914C 100.957 22.8477 100.055 21.9258 98.25 21.9258C 96.8281 21.9258 95.8555 22.5312 95.332 23.7422L 95.332 33L 93.1641 33L 93.1641 20.3203L 95.2148 20.3203ZM 119.484 33.2344C 117.766 33.2344 116.367 32.6719 115.289 31.5469C 114.211 30.4141 113.672 28.9023 113.672 27.0117L 113.672 26.6133C 113.672 25.3555 113.91 24.2344 114.387 23.25C 114.871 22.2578 115.543 21.4844 116.402 20.9297C 117.27 20.3672 118.207 20.0859 119.215 20.0859C 120.863 20.0859 122.145 20.6289 123.059 21.7148C 123.973 22.8008 124.43 24.3555 124.43 26.3789L 124.43 27.2812L 115.84 27.2812C 115.871 28.5312 116.234 29.543 116.93 30.3164C 117.633 31.082 118.523 31.4648 119.602 31.4648C 120.367 31.4648 121.016 31.3086 121.547 30.9961C 122.078 30.6836 122.543 30.2695 122.941 29.7539L 124.266 30.7852C 123.203 32.418 121.609 33.2344 119.484 33.2344ZM 119.215 21.8672C 118.34 21.8672 117.605 22.1875 117.012 22.8281C 116.418 23.4609 116.051 24.3516 115.91 25.5L 122.262 25.5L 122.262 25.3359C 122.199 24.2344 121.902 23.3828 121.371 22.7812C 120.84 22.1719 120.121 21.8672 119.215 21.8672Z" transform="translate(743 161)" fill="black"/>
</g>
</g>
<g id="Group 2">
<g id="Line 2">
<line y1="-1.5" x2="32.5269" y2="-1.5" stroke-width="3" transform="matrix(0.707107 0.707107 -0.707107 0.707107 317 164)" stroke="black"/>
</g>
<g id="Line 2.1">
<line y1="-1.5" x2="32.5269" y2="-1.5" stroke-width="3" transform="matrix(0.707107 -0.707107 -0.707107 -0.707107 317 207)" stroke="black"/>
</g>
</g>
<g id="Group 2.2">
<g id="Line 2_2">
<line y1="-1.5" x2="32.5269" y2="-1.5" stroke-width="3" transform="matrix(0.445634 0.895215 -0.895215 0.445634 331.67 260)" stroke="black"/>
</g>
<g id="Line 2.1_2">
<line y1="-1.5" x2="32.5269" y2="-1.5" stroke-width="3" transform="matrix(0.895215 -0.445634 -0.445634 -0.895215 318 300.769)" stroke="black"/>
</g>
</g>
<g id="Group 2.3">
<g id="Line 2_3">
<line y1="-1.5" x2="30.903" y2="-1.5" stroke-width="3" transform="matrix(0.938421 0.345494 -0.345494 0.938421 790 214.323)" stroke="black"/>
</g>
<g id="Line 2.1_3">
<line y1="-1.5" x2="30.6753" y2="-1.5" stroke-width="3" transform="matrix(0.348817 -0.937191 0.937191 0.348817 809.3 252.749)" stroke="black"/>
</g>
</g>
<g id="Group 2.1">
<g id="Line 2_4">
<line y1="-1.5" x2="32.5269" y2="-1.5" stroke-width="3" transform="matrix(0.707107 0.707107 -0.707107 0.707107 546 163)" stroke="black"/>
</g>
<g id="Line 2.1_4">
<line y1="-1.5" x2="32.5269" y2="-1.5" stroke-width="3" transform="matrix(0.707107 -0.707107 -0.707107 -0.707107 546 206)" stroke="black"/>
</g>
</g>
<g id="Group 3">
<g id="Ellipse">
<ellipse cx="93" cy="36" rx="93" ry="36" transform="translate(356 253)" fill="#DBDBDB"/>
<g mask="url(#path15_ins)" transform="translate(356 253)">
<ellipse cx="93" cy="36" rx="93" ry="36" stroke-width="6" stroke="black"/>
</g>
</g>
<g id="Case-Control">
<path d="M 38.4023 38.5859C 38.1914 40.3906 37.5234 41.7852 36.3984 42.7695C 35.2812 43.7461 33.793 44.2344 31.9336 44.2344C 29.918 44.2344 28.3008 43.5117 27.082 42.0664C 25.8711 40.6211 25.2656 38.6875 25.2656 36.2656L 25.2656 34.625C 25.2656 33.0391 25.5469 31.6445 26.1094 30.4414C 26.6797 29.2383 27.4844 28.3164 28.5234 27.6758C 29.5625 27.0273 30.7656 26.7031 32.1328 26.7031C 33.9453 26.7031 35.3984 27.2109 36.4922 28.2266C 37.5859 29.2344 38.2227 30.6328 38.4023 32.4219L 36.1406 32.4219C 35.9453 31.0625 35.5195 30.0781 34.8633 29.4688C 34.2148 28.8594 33.3047 28.5547 32.1328 28.5547C 30.6953 28.5547 29.5664 29.0859 28.7461 30.1484C 27.9336 31.2109 27.5273 32.7227 27.5273 34.6836L 27.5273 36.3359C 27.5273 38.1875 27.9141 39.6602 28.6875 40.7539C 29.4609 41.8477 30.543 42.3945 31.9336 42.3945C 33.1836 42.3945 34.1406 42.1133 34.8047 41.5508C 35.4766 40.9805 35.9219 39.9922 36.1406 38.5859L 38.4023 38.5859ZM 48.9727 44C 48.8477 43.75 48.7461 43.3047 48.668 42.6641C 47.6602 43.7109 46.457 44.2344 45.0586 44.2344C 43.8086 44.2344 42.7812 43.8828 41.9766 43.1797C 41.1797 42.4688 40.7812 41.5703 40.7812 40.4844C 40.7812 39.1641 41.2812 38.1406 42.2812 37.4141C 43.2891 36.6797 44.7031 36.3125 46.5234 36.3125L 48.6328 36.3125L 48.6328 35.3164C 48.6328 34.5586 48.4062 33.957 47.9531 33.5117C 47.5 33.0586 46.832 32.832 45.9492 32.832C 45.1758 32.832 44.5273 33.0273 44.0039 33.418C 43.4805 33.8086 43.2188 34.2812 43.2188 34.8359L 41.0391 34.8359C 41.0391 34.2031 41.2617 33.5938 41.707 33.0078C 42.1602 32.4141 42.7695 31.9453 43.5352 31.6016C 44.3086 31.2578 45.1562 31.0859 46.0781 31.0859C 47.5391 31.0859 48.6836 31.4531 49.5117 32.1875C 50.3398 32.9141 50.7695 33.918 50.8008 35.1992L 50.8008 41.0352C 50.8008 42.1992 50.9492 43.125 51.2461 43.8125L 51.2461 44L 48.9727 44ZM 45.375 42.3477C 46.0547 42.3477 46.6992 42.1719 47.3086 41.8203C 47.918 41.4688 48.3594 41.0117 48.6328 40.4492L 48.6328 37.8477L 46.9336 37.8477C 44.2773 37.8477 42.9492 38.625 42.9492 40.1797C 42.9492 40.8594 43.1758 41.3906 43.6289 41.7734C 44.082 42.1562 44.6641 42.3477 45.375 42.3477ZM 61.582 40.6367C 61.582 40.0508 61.3594 39.5977 60.9141 39.2773C 60.4766 38.9492 59.707 38.668 58.6055 38.4336C 57.5117 38.1992 56.6406 37.918 55.9922 37.5898C 55.3516 37.2617 54.875 36.8711 54.5625 36.418C 54.2578 35.9648 54.1055 35.4258 54.1055 34.8008C 54.1055 33.7617 54.543 32.8828 55.418 32.1641C 56.3008 31.4453 57.4258 31.0859 58.793 31.0859C 60.2305 31.0859 61.3945 31.457 62.2852 32.1992C 63.1836 32.9414 63.6328 33.8906 63.6328 35.0469L 61.4531 35.0469C 61.4531 34.4531 61.1992 33.9414 60.6914 33.5117C 60.1914 33.082 59.5586 32.8672 58.793 32.8672C 58.0039 32.8672 57.3867 33.0391 56.9414 33.3828C 56.4961 33.7266 56.2734 34.1758 56.2734 34.7305C 56.2734 35.2539 56.4805 35.6484 56.8945 35.9141C 57.3086 36.1797 58.0547 36.4336 59.1328 36.6758C 60.2188 36.918 61.0977 37.207 61.7695 37.543C 62.4414 37.8789 62.9375 38.2852 63.2578 38.7617C 63.5859 39.2305 63.75 39.8047 63.75 40.4844C 63.75 41.6172 63.2969 42.5273 62.3906 43.2148C 61.4844 43.8945 60.3086 44.2344 58.8633 44.2344C 57.8477 44.2344 56.9492 44.0547 56.168 43.6953C 55.3867 43.3359 54.7734 42.8359 54.3281 42.1953C 53.8906 41.5469 53.6719 40.8477 53.6719 40.0977L 55.8398 40.0977C 55.8789 40.8242 56.168 41.4023 56.707 41.832C 57.2539 42.2539 57.9727 42.4648 58.8633 42.4648C 59.6836 42.4648 60.3398 42.3008 60.832 41.9727C 61.332 41.6367 61.582 41.1914 61.582 40.6367ZM 71.8359 44.2344C 70.1172 44.2344 68.7188 43.6719 67.6406 42.5469C 66.5625 41.4141 66.0234 39.9023 66.0234 38.0117L 66.0234 37.6133C 66.0234 36.3555 66.2617 35.2344 66.7383 34.25C 67.2227 33.2578 67.8945 32.4844 68.7539 31.9297C 69.6211 31.3672 70.5586 31.0859 71.5664 31.0859C 73.2148 31.0859 74.4961 31.6289 75.4102 32.7148C 76.3242 33.8008 76.7812 35.3555 76.7812 37.3789L 76.7812 38.2812L 68.1914 38.2812C 68.2227 39.5312 68.5859 40.543 69.2812 41.3164C 69.9844 42.082 70.875 42.4648 71.9531 42.4648C 72.7188 42.4648 73.3672 42.3086 73.8984 41.9961C 74.4297 41.6836 74.8945 41.2695 75.293 40.7539L 76.6172 41.7852C 75.5547 43.418 73.9609 44.2344 71.8359 44.2344ZM 71.5664 32.8672C 70.6914 32.8672 69.957 33.1875 69.3633 33.8281C 68.7695 34.4609 68.4023 35.3516 68.2617 36.5L 74.6133 36.5L 74.6133 36.3359C 74.5508 35.2344 74.2539 34.3828 73.7227 33.7812C 73.1914 33.1719 72.4727 32.8672 71.5664 32.8672ZM 83.8125 37.6367L 78.0938 37.6367L 78.0938 35.8672L 83.8125 35.8672L 83.8125 37.6367ZM 98.8242 38.5859C 98.6133 40.3906 97.9453 41.7852 96.8203 42.7695C 95.7031 43.7461 94.2148 44.2344 92.3555 44.2344C 90.3398 44.2344 88.7227 43.5117 87.5039 42.0664C 86.293 40.6211 85.6875 38.6875 85.6875 36.2656L 85.6875 34.625C 85.6875 33.0391 85.9688 31.6445 86.5312 30.4414C 87.1016 29.2383 87.9062 28.3164 88.9453 27.6758C 89.9844 27.0273 91.1875 26.7031 92.5547 26.7031C 94.3672 26.7031 95.8203 27.2109 96.9141 28.2266C 98.0078 29.2344 98.6445 30.6328 98.8242 32.4219L 96.5625 32.4219C 96.3672 31.0625 95.9414 30.0781 95.2852 29.4688C 94.6367 28.8594 93.7266 28.5547 92.5547 28.5547C 91.1172 28.5547 89.9883 29.0859 89.168 30.1484C 88.3555 31.2109 87.9492 32.7227 87.9492 34.6836L 87.9492 36.3359C 87.9492 38.1875 88.3359 39.6602 89.1094 40.7539C 89.8828 41.8477 90.9648 42.3945 92.3555 42.3945C 93.6055 42.3945 94.5625 42.1133 95.2266 41.5508C 95.8984 40.9805 96.3438 39.9922 96.5625 38.5859L 98.8242 38.5859ZM 100.992 37.543C 100.992 36.3008 101.234 35.1836 101.719 34.1914C 102.211 33.1992 102.891 32.4336 103.758 31.8945C 104.633 31.3555 105.629 31.0859 106.746 31.0859C 108.473 31.0859 109.867 31.6836 110.93 32.8789C 112 34.0742 112.535 35.6641 112.535 37.6484L 112.535 37.8008C 112.535 39.0352 112.297 40.1445 111.82 41.1289C 111.352 42.1055 110.676 42.8672 109.793 43.4141C 108.918 43.9609 107.91 44.2344 106.77 44.2344C 105.051 44.2344 103.656 43.6367 102.586 42.4414C 101.523 41.2461 100.992 39.6641 100.992 37.6953L 100.992 37.543ZM 103.172 37.8008C 103.172 39.207 103.496 40.3359 104.145 41.1875C 104.801 42.0391 105.676 42.4648 106.77 42.4648C 107.871 42.4648 108.746 42.0352 109.395 41.1758C 110.043 40.3086 110.367 39.0977 110.367 37.543C 110.367 36.1523 110.035 35.0273 109.371 34.168C 108.715 33.3008 107.84 32.8672 106.746 32.8672C 105.676 32.8672 104.812 33.293 104.156 34.1445C 103.5 34.9961 103.172 36.2148 103.172 37.8008ZM 117.305 31.3203L 117.375 32.9141C 118.344 31.6953 119.609 31.0859 121.172 31.0859C 123.852 31.0859 125.203 32.5977 125.227 35.6211L 125.227 44L 123.059 44L 123.059 35.6094C 123.051 34.6953 122.84 34.0195 122.426 33.582C 122.02 33.1445 121.383 32.9258 120.516 32.9258C 119.812 32.9258 119.195 33.1133 118.664 33.4883C 118.133 33.8633 117.719 34.3555 117.422 34.9648L 117.422 44L 115.254 44L 115.254 31.3203L 117.305 31.3203ZM 131.438 28.25L 131.438 31.3203L 133.805 31.3203L 133.805 32.9961L 131.438 32.9961L 131.438 40.8594C 131.438 41.3672 131.543 41.75 131.754 42.0078C 131.965 42.2578 132.324 42.3828 132.832 42.3828C 133.082 42.3828 133.426 42.3359 133.863 42.2422L 133.863 44C 133.293 44.1562 132.738 44.2344 132.199 44.2344C 131.23 44.2344 130.5 43.9414 130.008 43.3555C 129.516 42.7695 129.27 41.9375 129.27 40.8594L 129.27 32.9961L 126.961 32.9961L 126.961 31.3203L 129.27 31.3203L 129.27 28.25L 131.438 28.25ZM 142.477 33.2656C 142.148 33.2109 141.793 33.1836 141.41 33.1836C 139.988 33.1836 139.023 33.7891 138.516 35L 138.516 44L 136.348 44L 136.348 31.3203L 138.457 31.3203L 138.492 32.7852C 139.203 31.6523 140.211 31.0859 141.516 31.0859C 141.938 31.0859 142.258 31.1406 142.477 31.25L 142.477 33.2656ZM 143.672 37.543C 143.672 36.3008 143.914 35.1836 144.398 34.1914C 144.891 33.1992 145.57 32.4336 146.438 31.8945C 147.312 31.3555 148.309 31.0859 149.426 31.0859C 151.152 31.0859 152.547 31.6836 153.609 32.8789C 154.68 34.0742 155.215 35.6641 155.215 37.6484L 155.215 37.8008C 155.215 39.0352 154.977 40.1445 154.5 41.1289C 154.031 42.1055 153.355 42.8672 152.473 43.4141C 151.598 43.9609 150.59 44.2344 149.449 44.2344C 147.73 44.2344 146.336 43.6367 145.266 42.4414C 144.203 41.2461 143.672 39.6641 143.672 37.6953L 143.672 37.543ZM 145.852 37.8008C 145.852 39.207 146.176 40.3359 146.824 41.1875C 147.48 42.0391 148.355 42.4648 149.449 42.4648C 150.551 42.4648 151.426 42.0352 152.074 41.1758C 152.723 40.3086 153.047 39.0977 153.047 37.543C 153.047 36.1523 152.715 35.0273 152.051 34.168C 151.395 33.3008 150.52 32.8672 149.426 32.8672C 148.355 32.8672 147.492 33.293 146.836 34.1445C 146.18 34.9961 145.852 36.2148 145.852 37.8008ZM 160.289 44L 158.121 44L 158.121 26L 160.289 26L 160.289 44Z" transform="translate(356 253)" fill="black"/>
</g>
</g>
<g id="Ellipse_2">
<ellipse cx="93" cy="36" rx="93" ry="36" transform="translate(356 414)" fill="#DBDBDB"/>
<g mask="url(#path17_ins)" transform="translate(356 414)">
<ellipse cx="93" cy="36" rx="93" ry="36" stroke-width="6" stroke="black"/>
</g>
</g>
<g id="Cross-Sectional">
<path d="M 23.707 38.5859C 23.4961 40.3906 22.8281 41.7852 21.7031 42.7695C 20.5859 43.7461 19.0977 44.2344 17.2383 44.2344C 15.2227 44.2344 13.6055 43.5117 12.3867 42.0664C 11.1758 40.6211 10.5703 38.6875 10.5703 36.2656L 10.5703 34.625C 10.5703 33.0391 10.8516 31.6445 11.4141 30.4414C 11.9844 29.2383 12.7891 28.3164 13.8281 27.6758C 14.8672 27.0273 16.0703 26.7031 17.4375 26.7031C 19.25 26.7031 20.7031 27.2109 21.7969 28.2266C 22.8906 29.2344 23.5273 30.6328 23.707 32.4219L 21.4453 32.4219C 21.25 31.0625 20.8242 30.0781 20.168 29.4688C 19.5195 28.8594 18.6094 28.5547 17.4375 28.5547C 16 28.5547 14.8711 29.0859 14.0508 30.1484C 13.2383 31.2109 12.832 32.7227 12.832 34.6836L 12.832 36.3359C 12.832 38.1875 13.2188 39.6602 13.9922 40.7539C 14.7656 41.8477 15.8477 42.3945 17.2383 42.3945C 18.4883 42.3945 19.4453 42.1133 20.1094 41.5508C 20.7812 40.9805 21.2266 39.9922 21.4453 38.5859L 23.707 38.5859ZM 32.5781 33.2656C 32.25 33.2109 31.8945 33.1836 31.5117 33.1836C 30.0898 33.1836 29.125 33.7891 28.6172 35L 28.6172 44L 26.4492 44L 26.4492 31.3203L 28.5586 31.3203L 28.5938 32.7852C 29.3047 31.6523 30.3125 31.0859 31.6172 31.0859C 32.0391 31.0859 32.3594 31.1406 32.5781 31.25L 32.5781 33.2656ZM 33.7734 37.543C 33.7734 36.3008 34.0156 35.1836 34.5 34.1914C 34.9922 33.1992 35.6719 32.4336 36.5391 31.8945C 37.4141 31.3555 38.4102 31.0859 39.5273 31.0859C 41.2539 31.0859 42.6484 31.6836 43.7109 32.8789C 44.7812 34.0742 45.3164 35.6641 45.3164 37.6484L 45.3164 37.8008C 45.3164 39.0352 45.0781 40.1445 44.6016 41.1289C 44.1328 42.1055 43.457 42.8672 42.5742 43.4141C 41.6992 43.9609 40.6914 44.2344 39.5508 44.2344C 37.832 44.2344 36.4375 43.6367 35.3672 42.4414C 34.3047 41.2461 33.7734 39.6641 33.7734 37.6953L 33.7734 37.543ZM 35.9531 37.8008C 35.9531 39.207 36.2773 40.3359 36.9258 41.1875C 37.582 42.0391 38.457 42.4648 39.5508 42.4648C 40.6523 42.4648 41.5273 42.0352 42.1758 41.1758C 42.8242 40.3086 43.1484 39.0977 43.1484 37.543C 43.1484 36.1523 42.8164 35.0273 42.1523 34.168C 41.4961 33.3008 40.6211 32.8672 39.5273 32.8672C 38.457 32.8672 37.5938 33.293 36.9375 34.1445C 36.2812 34.9961 35.9531 36.2148 35.9531 37.8008ZM 55.418 40.6367C 55.418 40.0508 55.1953 39.5977 54.75 39.2773C 54.3125 38.9492 53.543 38.668 52.4414 38.4336C 51.3477 38.1992 50.4766 37.918 49.8281 37.5898C 49.1875 37.2617 48.7109 36.8711 48.3984 36.418C 48.0938 35.9648 47.9414 35.4258 47.9414 34.8008C 47.9414 33.7617 48.3789 32.8828 49.2539 32.1641C 50.1367 31.4453 51.2617 31.0859 52.6289 31.0859C 54.0664 31.0859 55.2305 31.457 56.1211 32.1992C 57.0195 32.9414 57.4688 33.8906 57.4688 35.0469L 55.2891 35.0469C 55.2891 34.4531 55.0352 33.9414 54.5273 33.5117C 54.0273 33.082 53.3945 32.8672 52.6289 32.8672C 51.8398 32.8672 51.2227 33.0391 50.7773 33.3828C 50.332 33.7266 50.1094 34.1758 50.1094 34.7305C 50.1094 35.2539 50.3164 35.6484 50.7305 35.9141C 51.1445 36.1797 51.8906 36.4336 52.9688 36.6758C 54.0547 36.918 54.9336 37.207 55.6055 37.543C 56.2773 37.8789 56.7734 38.2852 57.0938 38.7617C 57.4219 39.2305 57.5859 39.8047 57.5859 40.4844C 57.5859 41.6172 57.1328 42.5273 56.2266 43.2148C 55.3203 43.8945 54.1445 44.2344 52.6992 44.2344C 51.6836 44.2344 50.7852 44.0547 50.0039 43.6953C 49.2227 43.3359 48.6094 42.8359 48.1641 42.1953C 47.7266 41.5469 47.5078 40.8477 47.5078 40.0977L 49.6758 40.0977C 49.7148 40.8242 50.0039 41.4023 50.543 41.832C 51.0898 42.2539 51.8086 42.4648 52.6992 42.4648C 53.5195 42.4648 54.1758 42.3008 54.668 41.9727C 55.168 41.6367 55.418 41.1914 55.418 40.6367ZM 67.793 40.6367C 67.793 40.0508 67.5703 39.5977 67.125 39.2773C 66.6875 38.9492 65.918 38.668 64.8164 38.4336C 63.7227 38.1992 62.8516 37.918 62.2031 37.5898C 61.5625 37.2617 61.0859 36.8711 60.7734 36.418C 60.4688 35.9648 60.3164 35.4258 60.3164 34.8008C 60.3164 33.7617 60.7539 32.8828 61.6289 32.1641C 62.5117 31.4453 63.6367 31.0859 65.0039 31.0859C 66.4414 31.0859 67.6055 31.457 68.4961 32.1992C 69.3945 32.9414 69.8438 33.8906 69.8438 35.0469L 67.6641 35.0469C 67.6641 34.4531 67.4102 33.9414 66.9023 33.5117C 66.4023 33.082 65.7695 32.8672 65.0039 32.8672C 64.2148 32.8672 63.5977 33.0391 63.1523 33.3828C 62.707 33.7266 62.4844 34.1758 62.4844 34.7305C 62.4844 35.2539 62.6914 35.6484 63.1055 35.9141C 63.5195 36.1797 64.2656 36.4336 65.3438 36.6758C 66.4297 36.918 67.3086 37.207 67.9805 37.543C 68.6523 37.8789 69.1484 38.2852 69.4688 38.7617C 69.7969 39.2305 69.9609 39.8047 69.9609 40.4844C 69.9609 41.6172 69.5078 42.5273 68.6016 43.2148C 67.6953 43.8945 66.5195 44.2344 65.0742 44.2344C 64.0586 44.2344 63.1602 44.0547 62.3789 43.6953C 61.5977 43.3359 60.9844 42.8359 60.5391 42.1953C 60.1016 41.5469 59.8828 40.8477 59.8828 40.0977L 62.0508 40.0977C 62.0898 40.8242 62.3789 41.4023 62.918 41.832C 63.4648 42.2539 64.1836 42.4648 65.0742 42.4648C 65.8945 42.4648 66.5508 42.3008 67.043 41.9727C 67.543 41.6367 67.793 41.1914 67.793 40.6367ZM 77.2969 37.6367L 71.5781 37.6367L 71.5781 35.8672L 77.2969 35.8672L 77.2969 37.6367ZM 84.7852 36.3945C 82.8555 35.8398 81.4492 35.1602 80.5664 34.3555C 79.6914 33.543 79.2539 32.543 79.2539 31.3555C 79.2539 30.0117 79.7891 28.9023 80.8594 28.0273C 81.9375 27.1445 83.3359 26.7031 85.0547 26.7031C 86.2266 26.7031 87.2695 26.9297 88.1836 27.3828C 89.1055 27.8359 89.8164 28.4609 90.3164 29.2578C 90.8242 30.0547 91.0781 30.9258 91.0781 31.8711L 88.8164 31.8711C 88.8164 30.8398 88.4883 30.0312 87.832 29.4453C 87.1758 28.8516 86.25 28.5547 85.0547 28.5547C 83.9453 28.5547 83.0781 28.8008 82.4531 29.293C 81.8359 29.7773 81.5273 30.4531 81.5273 31.3203C 81.5273 32.0156 81.8203 32.6055 82.4062 33.0898C 83 33.5664 84.0039 34.0039 85.418 34.4023C 86.8398 34.8008 87.9492 35.2422 88.7461 35.7266C 89.5508 36.2031 90.1445 36.7617 90.5273 37.4023C 90.918 38.043 91.1133 38.7969 91.1133 39.6641C 91.1133 41.0469 90.5742 42.1562 89.4961 42.9922C 88.418 43.8203 86.9766 44.2344 85.1719 44.2344C 84 44.2344 82.9062 44.0117 81.8906 43.5664C 80.875 43.1133 80.0898 42.4961 79.5352 41.7148C 78.9883 40.9336 78.7148 40.0469 78.7148 39.0547L 80.9766 39.0547C 80.9766 40.0859 81.3555 40.9023 82.1133 41.5039C 82.8789 42.0977 83.8984 42.3945 85.1719 42.3945C 86.3594 42.3945 87.2695 42.1523 87.9023 41.668C 88.5352 41.1836 88.8516 40.5234 88.8516 39.6875C 88.8516 38.8516 88.5586 38.207 87.9727 37.7539C 87.3867 37.293 86.3242 36.8398 84.7852 36.3945ZM 98.9297 44.2344C 97.2109 44.2344 95.8125 43.6719 94.7344 42.5469C 93.6562 41.4141 93.1172 39.9023 93.1172 38.0117L 93.1172 37.6133C 93.1172 36.3555 93.3555 35.2344 93.832 34.25C 94.3164 33.2578 94.9883 32.4844 95.8477 31.9297C 96.7148 31.3672 97.6523 31.0859 98.6602 31.0859C 100.309 31.0859 101.59 31.6289 102.504 32.7148C 103.418 33.8008 103.875 35.3555 103.875 37.3789L 103.875 38.2812L 95.2852 38.2812C 95.3164 39.5312 95.6797 40.543 96.375 41.3164C 97.0781 42.082 97.9688 42.4648 99.0469 42.4648C 99.8125 42.4648 100.461 42.3086 100.992 41.9961C 101.523 41.6836 101.988 41.2695 102.387 40.7539L 103.711 41.7852C 102.648 43.418 101.055 44.2344 98.9297 44.2344ZM 98.6602 32.8672C 97.7852 32.8672 97.0508 33.1875 96.457 33.8281C 95.8633 34.4609 95.4961 35.3516 95.3555 36.5L 101.707 36.5L 101.707 36.3359C 101.645 35.2344 101.348 34.3828 100.816 33.7812C 100.285 33.1719 99.5664 32.8672 98.6602 32.8672ZM 111.48 42.4648C 112.254 42.4648 112.93 42.2305 113.508 41.7617C 114.086 41.293 114.406 40.707 114.469 40.0039L 116.52 40.0039C 116.48 40.7305 116.23 41.4219 115.77 42.0781C 115.309 42.7344 114.691 43.2578 113.918 43.6484C 113.152 44.0391 112.34 44.2344 111.48 44.2344C 109.754 44.2344 108.379 43.6602 107.355 42.5117C 106.34 41.3555 105.832 39.7773 105.832 37.7773L 105.832 37.4141C 105.832 36.1797 106.059 35.082 106.512 34.1211C 106.965 33.1602 107.613 32.4141 108.457 31.8828C 109.309 31.3516 110.312 31.0859 111.469 31.0859C 112.891 31.0859 114.07 31.5117 115.008 32.3633C 115.953 33.2148 116.457 34.3203 116.52 35.6797L 114.469 35.6797C 114.406 34.8594 114.094 34.1875 113.531 33.6641C 112.977 33.1328 112.289 32.8672 111.469 32.8672C 110.367 32.8672 109.512 33.2656 108.902 34.0625C 108.301 34.8516 108 35.9961 108 37.4961L 108 37.9062C 108 39.3672 108.301 40.4922 108.902 41.2812C 109.504 42.0703 110.363 42.4648 111.48 42.4648ZM 121.898 28.25L 121.898 31.3203L 124.266 31.3203L 124.266 32.9961L 121.898 32.9961L 121.898 40.8594C 121.898 41.3672 122.004 41.75 122.215 42.0078C 122.426 42.2578 122.785 42.3828 123.293 42.3828C 123.543 42.3828 123.887 42.3359 124.324 42.2422L 124.324 44C 123.754 44.1562 123.199 44.2344 122.66 44.2344C 121.691 44.2344 120.961 43.9414 120.469 43.3555C 119.977 42.7695 119.73 41.9375 119.73 40.8594L 119.73 32.9961L 117.422 32.9961L 117.422 31.3203L 119.73 31.3203L 119.73 28.25L 121.898 28.25ZM 129.164 44L 126.996 44L 126.996 31.3203L 129.164 31.3203L 129.164 44ZM 126.82 27.957C 126.82 27.6055 126.926 27.3086 127.137 27.0664C 127.355 26.8242 127.676 26.7031 128.098 26.7031C 128.52 26.7031 128.84 26.8242 129.059 27.0664C 129.277 27.3086 129.387 27.6055 129.387 27.957C 129.387 28.3086 129.277 28.6016 129.059 28.8359C 128.84 29.0703 128.52 29.1875 128.098 29.1875C 127.676 29.1875 127.355 29.0703 127.137 28.8359C 126.926 28.6016 126.82 28.3086 126.82 27.957ZM 132.07 37.543C 132.07 36.3008 132.312 35.1836 132.797 34.1914C 133.289 33.1992 133.969 32.4336 134.836 31.8945C 135.711 31.3555 136.707 31.0859 137.824 31.0859C 139.551 31.0859 140.945 31.6836 142.008 32.8789C 143.078 34.0742 143.613 35.6641 143.613 37.6484L 143.613 37.8008C 143.613 39.0352 143.375 40.1445 142.898 41.1289C 142.43 42.1055 141.754 42.8672 140.871 43.4141C 139.996 43.9609 138.988 44.2344 137.848 44.2344C 136.129 44.2344 134.734 43.6367 133.664 42.4414C 132.602 41.2461 132.07 39.6641 132.07 37.6953L 132.07 37.543ZM 134.25 37.8008C 134.25 39.207 134.574 40.3359 135.223 41.1875C 135.879 42.0391 136.754 42.4648 137.848 42.4648C 138.949 42.4648 139.824 42.0352 140.473 41.1758C 141.121 40.3086 141.445 39.0977 141.445 37.543C 141.445 36.1523 141.113 35.0273 140.449 34.168C 139.793 33.3008 138.918 32.8672 137.824 32.8672C 136.754 32.8672 135.891 33.293 135.234 34.1445C 134.578 34.9961 134.25 36.2148 134.25 37.8008ZM 148.383 31.3203L 148.453 32.9141C 149.422 31.6953 150.688 31.0859 152.25 31.0859C 154.93 31.0859 156.281 32.5977 156.305 35.6211L 156.305 44L 154.137 44L 154.137 35.6094C 154.129 34.6953 153.918 34.0195 153.504 33.582C 153.098 33.1445 152.461 32.9258 151.594 32.9258C 150.891 32.9258 150.273 33.1133 149.742 33.4883C 149.211 33.8633 148.797 34.3555 148.5 34.9648L 148.5 44L 146.332 44L 146.332 31.3203L 148.383 31.3203ZM 167.402 44C 167.277 43.75 167.176 43.3047 167.098 42.6641C 166.09 43.7109 164.887 44.2344 163.488 44.2344C 162.238 44.2344 161.211 43.8828 160.406 43.1797C 159.609 42.4688 159.211 41.5703 159.211 40.4844C 159.211 39.1641 159.711 38.1406 160.711 37.4141C 161.719 36.6797 163.133 36.3125 164.953 36.3125L 167.062 36.3125L 167.062 35.3164C 167.062 34.5586 166.836 33.957 166.383 33.5117C 165.93 33.0586 165.262 32.832 164.379 32.832C 163.605 32.832 162.957 33.0273 162.434 33.418C 161.91 33.8086 161.648 34.2812 161.648 34.8359L 159.469 34.8359C 159.469 34.2031 159.691 33.5938 160.137 33.0078C 160.59 32.4141 161.199 31.9453 161.965 31.6016C 162.738 31.2578 163.586 31.0859 164.508 31.0859C 165.969 31.0859 167.113 31.4531 167.941 32.1875C 168.77 32.9141 169.199 33.918 169.23 35.1992L 169.23 41.0352C 169.23 42.1992 169.379 43.125 169.676 43.8125L 169.676 44L 167.402 44ZM 163.805 42.3477C 164.484 42.3477 165.129 42.1719 165.738 41.8203C 166.348 41.4688 166.789 41.0117 167.062 40.4492L 167.062 37.8477L 165.363 37.8477C 162.707 37.8477 161.379 38.625 161.379 40.1797C 161.379 40.8594 161.605 41.3906 162.059 41.7734C 162.512 42.1562 163.094 42.3477 163.805 42.3477ZM 174.984 44L 172.816 44L 172.816 26L 174.984 26L 174.984 44Z" transform="translate(356 414)" fill="black"/>
</g>
<g id="Line_2">
<line y1="-1.5" x2="243" y2="-1.5" stroke-width="3" transform="matrix(0 1 -1 0 66 207)" stroke="black"/>
</g>
<g id="Line 2_5">
<line y1="-1.5" x2="287" y2="-1.5" stroke-width="3" transform="matrix(1 8.74228e-08 -8.74228e-08 1 66 450)" stroke="black"/>
</g>
<g id="Line 3">
<line y1="-1.5" x2="294" y2="-1.5" stroke-width="3" transform="translate(541 450)" stroke="black"/>
</g>
<g id="Line 3_2">
<line y1="-1.5" x2="240" y2="-1.5" stroke-width="3" transform="matrix(-4.37114e-08 -1 1 -4.37114e-08 835 450)" stroke="black"/>
</g>
<g id="Group 3.1">
<g id="Ellipse_3">
<ellipse cx="93" cy="36" rx="93" ry="36" transform="translate(356 0)" fill="#DBDBDB"/>
<g mask="url(#path23_ins)" transform="translate(356 0)">
<ellipse cx="93" cy="36" rx="93" ry="36" stroke-width="6" stroke="black"/>
</g>
</g>
<g id="Case-Control_2">
<path d="M 38.4023 38.5859C 38.1914 40.3906 37.5234 41.7852 36.3984 42.7695C 35.2812 43.7461 33.793 44.2344 31.9336 44.2344C 29.918 44.2344 28.3008 43.5117 27.082 42.0664C 25.8711 40.6211 25.2656 38.6875 25.2656 36.2656L 25.2656 34.625C 25.2656 33.0391 25.5469 31.6445 26.1094 30.4414C 26.6797 29.2383 27.4844 28.3164 28.5234 27.6758C 29.5625 27.0273 30.7656 26.7031 32.1328 26.7031C 33.9453 26.7031 35.3984 27.2109 36.4922 28.2266C 37.5859 29.2344 38.2227 30.6328 38.4023 32.4219L 36.1406 32.4219C 35.9453 31.0625 35.5195 30.0781 34.8633 29.4688C 34.2148 28.8594 33.3047 28.5547 32.1328 28.5547C 30.6953 28.5547 29.5664 29.0859 28.7461 30.1484C 27.9336 31.2109 27.5273 32.7227 27.5273 34.6836L 27.5273 36.3359C 27.5273 38.1875 27.9141 39.6602 28.6875 40.7539C 29.4609 41.8477 30.543 42.3945 31.9336 42.3945C 33.1836 42.3945 34.1406 42.1133 34.8047 41.5508C 35.4766 40.9805 35.9219 39.9922 36.1406 38.5859L 38.4023 38.5859ZM 48.9727 44C 48.8477 43.75 48.7461 43.3047 48.668 42.6641C 47.6602 43.7109 46.457 44.2344 45.0586 44.2344C 43.8086 44.2344 42.7812 43.8828 41.9766 43.1797C 41.1797 42.4688 40.7812 41.5703 40.7812 40.4844C 40.7812 39.1641 41.2812 38.1406 42.2812 37.4141C 43.2891 36.6797 44.7031 36.3125 46.5234 36.3125L 48.6328 36.3125L 48.6328 35.3164C 48.6328 34.5586 48.4062 33.957 47.9531 33.5117C 47.5 33.0586 46.832 32.832 45.9492 32.832C 45.1758 32.832 44.5273 33.0273 44.0039 33.418C 43.4805 33.8086 43.2188 34.2812 43.2188 34.8359L 41.0391 34.8359C 41.0391 34.2031 41.2617 33.5938 41.707 33.0078C 42.1602 32.4141 42.7695 31.9453 43.5352 31.6016C 44.3086 31.2578 45.1562 31.0859 46.0781 31.0859C 47.5391 31.0859 48.6836 31.4531 49.5117 32.1875C 50.3398 32.9141 50.7695 33.918 50.8008 35.1992L 50.8008 41.0352C 50.8008 42.1992 50.9492 43.125 51.2461 43.8125L 51.2461 44L 48.9727 44ZM 45.375 42.3477C 46.0547 42.3477 46.6992 42.1719 47.3086 41.8203C 47.918 41.4688 48.3594 41.0117 48.6328 40.4492L 48.6328 37.8477L 46.9336 37.8477C 44.2773 37.8477 42.9492 38.625 42.9492 40.1797C 42.9492 40.8594 43.1758 41.3906 43.6289 41.7734C 44.082 42.1562 44.6641 42.3477 45.375 42.3477ZM 61.582 40.6367C 61.582 40.0508 61.3594 39.5977 60.9141 39.2773C 60.4766 38.9492 59.707 38.668 58.6055 38.4336C 57.5117 38.1992 56.6406 37.918 55.9922 37.5898C 55.3516 37.2617 54.875 36.8711 54.5625 36.418C 54.2578 35.9648 54.1055 35.4258 54.1055 34.8008C 54.1055 33.7617 54.543 32.8828 55.418 32.1641C 56.3008 31.4453 57.4258 31.0859 58.793 31.0859C 60.2305 31.0859 61.3945 31.457 62.2852 32.1992C 63.1836 32.9414 63.6328 33.8906 63.6328 35.0469L 61.4531 35.0469C 61.4531 34.4531 61.1992 33.9414 60.6914 33.5117C 60.1914 33.082 59.5586 32.8672 58.793 32.8672C 58.0039 32.8672 57.3867 33.0391 56.9414 33.3828C 56.4961 33.7266 56.2734 34.1758 56.2734 34.7305C 56.2734 35.2539 56.4805 35.6484 56.8945 35.9141C 57.3086 36.1797 58.0547 36.4336 59.1328 36.6758C 60.2188 36.918 61.0977 37.207 61.7695 37.543C 62.4414 37.8789 62.9375 38.2852 63.2578 38.7617C 63.5859 39.2305 63.75 39.8047 63.75 40.4844C 63.75 41.6172 63.2969 42.5273 62.3906 43.2148C 61.4844 43.8945 60.3086 44.2344 58.8633 44.2344C 57.8477 44.2344 56.9492 44.0547 56.168 43.6953C 55.3867 43.3359 54.7734 42.8359 54.3281 42.1953C 53.8906 41.5469 53.6719 40.8477 53.6719 40.0977L 55.8398 40.0977C 55.8789 40.8242 56.168 41.4023 56.707 41.832C 57.2539 42.2539 57.9727 42.4648 58.8633 42.4648C 59.6836 42.4648 60.3398 42.3008 60.832 41.9727C 61.332 41.6367 61.582 41.1914 61.582 40.6367ZM 71.8359 44.2344C 70.1172 44.2344 68.7188 43.6719 67.6406 42.5469C 66.5625 41.4141 66.0234 39.9023 66.0234 38.0117L 66.0234 37.6133C 66.0234 36.3555 66.2617 35.2344 66.7383 34.25C 67.2227 33.2578 67.8945 32.4844 68.7539 31.9297C 69.6211 31.3672 70.5586 31.0859 71.5664 31.0859C 73.2148 31.0859 74.4961 31.6289 75.4102 32.7148C 76.3242 33.8008 76.7812 35.3555 76.7812 37.3789L 76.7812 38.2812L 68.1914 38.2812C 68.2227 39.5312 68.5859 40.543 69.2812 41.3164C 69.9844 42.082 70.875 42.4648 71.9531 42.4648C 72.7188 42.4648 73.3672 42.3086 73.8984 41.9961C 74.4297 41.6836 74.8945 41.2695 75.293 40.7539L 76.6172 41.7852C 75.5547 43.418 73.9609 44.2344 71.8359 44.2344ZM 71.5664 32.8672C 70.6914 32.8672 69.957 33.1875 69.3633 33.8281C 68.7695 34.4609 68.4023 35.3516 68.2617 36.5L 74.6133 36.5L 74.6133 36.3359C 74.5508 35.2344 74.2539 34.3828 73.7227 33.7812C 73.1914 33.1719 72.4727 32.8672 71.5664 32.8672ZM 83.8125 37.6367L 78.0938 37.6367L 78.0938 35.8672L 83.8125 35.8672L 83.8125 37.6367ZM 98.8242 38.5859C 98.6133 40.3906 97.9453 41.7852 96.8203 42.7695C 95.7031 43.7461 94.2148 44.2344 92.3555 44.2344C 90.3398 44.2344 88.7227 43.5117 87.5039 42.0664C 86.293 40.6211 85.6875 38.6875 85.6875 36.2656L 85.6875 34.625C 85.6875 33.0391 85.9688 31.6445 86.5312 30.4414C 87.1016 29.2383 87.9062 28.3164 88.9453 27.6758C 89.9844 27.0273 91.1875 26.7031 92.5547 26.7031C 94.3672 26.7031 95.8203 27.2109 96.9141 28.2266C 98.0078 29.2344 98.6445 30.6328 98.8242 32.4219L 96.5625 32.4219C 96.3672 31.0625 95.9414 30.0781 95.2852 29.4688C 94.6367 28.8594 93.7266 28.5547 92.5547 28.5547C 91.1172 28.5547 89.9883 29.0859 89.168 30.1484C 88.3555 31.2109 87.9492 32.7227 87.9492 34.6836L 87.9492 36.3359C 87.9492 38.1875 88.3359 39.6602 89.1094 40.7539C 89.8828 41.8477 90.9648 42.3945 92.3555 42.3945C 93.6055 42.3945 94.5625 42.1133 95.2266 41.5508C 95.8984 40.9805 96.3438 39.9922 96.5625 38.5859L 98.8242 38.5859ZM 100.992 37.543C 100.992 36.3008 101.234 35.1836 101.719 34.1914C 102.211 33.1992 102.891 32.4336 103.758 31.8945C 104.633 31.3555 105.629 31.0859 106.746 31.0859C 108.473 31.0859 109.867 31.6836 110.93 32.8789C 112 34.0742 112.535 35.6641 112.535 37.6484L 112.535 37.8008C 112.535 39.0352 112.297 40.1445 111.82 41.1289C 111.352 42.1055 110.676 42.8672 109.793 43.4141C 108.918 43.9609 107.91 44.2344 106.77 44.2344C 105.051 44.2344 103.656 43.6367 102.586 42.4414C 101.523 41.2461 100.992 39.6641 100.992 37.6953L 100.992 37.543ZM 103.172 37.8008C 103.172 39.207 103.496 40.3359 104.145 41.1875C 104.801 42.0391 105.676 42.4648 106.77 42.4648C 107.871 42.4648 108.746 42.0352 109.395 41.1758C 110.043 40.3086 110.367 39.0977 110.367 37.543C 110.367 36.1523 110.035 35.0273 109.371 34.168C 108.715 33.3008 107.84 32.8672 106.746 32.8672C 105.676 32.8672 104.812 33.293 104.156 34.1445C 103.5 34.9961 103.172 36.2148 103.172 37.8008ZM 117.305 31.3203L 117.375 32.9141C 118.344 31.6953 119.609 31.0859 121.172 31.0859C 123.852 31.0859 125.203 32.5977 125.227 35.6211L 125.227 44L 123.059 44L 123.059 35.6094C 123.051 34.6953 122.84 34.0195 122.426 33.582C 122.02 33.1445 121.383 32.9258 120.516 32.9258C 119.812 32.9258 119.195 33.1133 118.664 33.4883C 118.133 33.8633 117.719 34.3555 117.422 34.9648L 117.422 44L 115.254 44L 115.254 31.3203L 117.305 31.3203ZM 131.438 28.25L 131.438 31.3203L 133.805 31.3203L 133.805 32.9961L 131.438 32.9961L 131.438 40.8594C 131.438 41.3672 131.543 41.75 131.754 42.0078C 131.965 42.2578 132.324 42.3828 132.832 42.3828C 133.082 42.3828 133.426 42.3359 133.863 42.2422L 133.863 44C 133.293 44.1562 132.738 44.2344 132.199 44.2344C 131.23 44.2344 130.5 43.9414 130.008 43.3555C 129.516 42.7695 129.27 41.9375 129.27 40.8594L 129.27 32.9961L 126.961 32.9961L 126.961 31.3203L 129.27 31.3203L 129.27 28.25L 131.438 28.25ZM 142.477 33.2656C 142.148 33.2109 141.793 33.1836 141.41 33.1836C 139.988 33.1836 139.023 33.7891 138.516 35L 138.516 44L 136.348 44L 136.348 31.3203L 138.457 31.3203L 138.492 32.7852C 139.203 31.6523 140.211 31.0859 141.516 31.0859C 141.938 31.0859 142.258 31.1406 142.477 31.25L 142.477 33.2656ZM 143.672 37.543C 143.672 36.3008 143.914 35.1836 144.398 34.1914C 144.891 33.1992 145.57 32.4336 146.438 31.8945C 147.312 31.3555 148.309 31.0859 149.426 31.0859C 151.152 31.0859 152.547 31.6836 153.609 32.8789C 154.68 34.0742 155.215 35.6641 155.215 37.6484L 155.215 37.8008C 155.215 39.0352 154.977 40.1445 154.5 41.1289C 154.031 42.1055 153.355 42.8672 152.473 43.4141C 151.598 43.9609 150.59 44.2344 149.449 44.2344C 147.73 44.2344 146.336 43.6367 145.266 42.4414C 144.203 41.2461 143.672 39.6641 143.672 37.6953L 143.672 37.543ZM 145.852 37.8008C 145.852 39.207 146.176 40.3359 146.824 41.1875C 147.48 42.0391 148.355 42.4648 149.449 42.4648C 150.551 42.4648 151.426 42.0352 152.074 41.1758C 152.723 40.3086 153.047 39.0977 153.047 37.543C 153.047 36.1523 152.715 35.0273 152.051 34.168C 151.395 33.3008 150.52 32.8672 149.426 32.8672C 148.355 32.8672 147.492 33.293 146.836 34.1445C 146.18 34.9961 145.852 36.2148 145.852 37.8008ZM 160.289 44L 158.121 44L 158.121 26L 160.289 26L 160.289 44Z" transform="translate(356 0)" fill="black"/>
</g>
</g>
<g id="Line 2_6">
<line y1="-1.5" x2="281.32" y2="-1.5" stroke-width="3" transform="matrix(0.959761 0.280819 -0.280819 0.959761 76 210)" stroke="black"/>
</g>
<g id="Group 2.4">
<g id="Line 2_7">
<line y1="-1.5" x2="32.5269" y2="-1.5" stroke-width="3" transform="matrix(-0.263456 0.964671 0.964671 0.263456 87.9736 117)" stroke="black"/>
</g>
<g id="Line 2.1_5">
<line y1="-1.5" x2="32.5269" y2="-1.5" stroke-width="3" transform="matrix(-0.964671 -0.263456 0.263456 -0.964671 109.294 154.342)" stroke="black"/>
</g>
</g>
<g id="Line 2.2">
<line y1="-1.5" x2="298.605" y2="-1.5" stroke-width="3" transform="matrix(0.930996 -0.365031 0.365031 0.930996 79 147)" stroke="black"/>
</g>
<g id="Line 2.1_6">
<line y1="-1.5" x2="280.981" y2="-1.5" stroke-width="3" transform="matrix(0.972524 -0.232804 0.232804 0.972524 546 289)" stroke="black"/>
</g>
<g id="Group 2.5">
<g id="Line 2_8">
<line y1="-1.5" x2="30.903" y2="-1.5" stroke-width="3" transform="matrix(-0.939424 0.342757 0.342757 0.939424 577.458 27.1416)" stroke="black"/>
</g>
<g id="Line 2.1_7">
<line y1="-1.5" x2="30.6753" y2="-1.5" stroke-width="3" transform="matrix(-0.346084 -0.938204 -0.938204 0.346084 558.046 65.5106)" stroke="black"/>
</g>
</g>
<g id="Line 2.3">
<line y1="-1.5" x2="299.837" y2="-1.5" stroke-width="3" transform="matrix(0.911364 0.411602 -0.411602 0.911364 548 38)" stroke="black"/>
</g>
</g>
</g>
<defs>

<mask id="path15_ins" fill="white">
<ellipse cx="93" cy="36" rx="93" ry="36"/>
</mask>
<mask id="path17_ins" fill="white">
<ellipse cx="93" cy="36" rx="93" ry="36"/>
</mask>
<mask id="path23_ins" fill="white">
<ellipse cx="93" cy="36" rx="93" ry="36"/>
</mask>

</defs>
</svg>

