<svg width="766" height="451" viewBox="0 0 766 451" version="1.1" xmlns="http://www.w3.org/2000/svg" xmlns:xlink="http://www.w3.org/1999/xlink">
<g id="Canvas" fill="none">
<g id="frequent_set">
<g id="Rectangle" filter="url(#filter0_d)">
<rect width="61" height="61" transform="translate(149 0)" fill="#219653"/>
</g>
<g id="Rectangle_2" filter="url(#filter1_d)">
<rect width="61" height="61" transform="translate(241 0)" fill="#219653"/>
</g>
<g id="Rectangle_3" filter="url(#filter2_d)">
<rect width="61" height="61" transform="translate(425 0)" fill="#219653"/>
</g>
<g id="Rectangle_4" filter="url(#filter3_d)">
<rect width="61" height="61" transform="translate(333 0)" fill="#C4C4C4"/>
</g>
<g id="Rectangle_5" filter="url(#filter4_d)">
<rect width="61" height="61" transform="translate(517 0)" fill="#C4C4C4"/>
</g>
<g id="Rectangle_6" filter="url(#filter5_d)">
<rect width="61" height="61" transform="translate(609 0)" fill="#C4C4C4"/>
</g>
<g id="Rectangle_7" filter="url(#filter6_d)">
<rect width="61" height="61" transform="translate(701 0)" fill="#C4C4C4"/>
</g>
<g id="Rectangle_8" filter="url(#filter7_d)">
<rect width="61" height="61" transform="translate(149 81)" fill="#C4C4C4"/>
</g>
<g id="Rectangle_9" filter="url(#filter8_d)">
<rect width="61" height="61" transform="translate(241 81)" fill="#219653"/>
</g>
<g id="Rectangle_10" filter="url(#filter9_d)">
<rect width="61" height="61" transform="translate(425 81)" fill="#219653"/>
</g>
<g id="Rectangle_11" filter="url(#filter10_d)">
<rect width="61" height="61" transform="translate(333 81)" fill="#C4C4C4"/>
</g>
<g id="Rectangle_12" filter="url(#filter11_d)">
<rect width="61" height="61" transform="translate(517 81)" fill="#C4C4C4"/>
</g>
<g id="Rectangle_13" filter="url(#filter12_d)">
<rect width="61" height="61" transform="translate(609 81)" fill="#C4C4C4"/>
</g>
<g id="Rectangle_14" filter="url(#filter13_d)">
<rect width="61" height="61" transform="translate(701 81)" fill="#219653"/>
</g>
<g id="Rectangle_15" filter="url(#filter14_d)">
<rect width="61" height="61" transform="translate(149 162)" fill="#219653"/>
</g>
<g id="Rectangle_16" filter="url(#filter15_d)">
<rect width="61" height="61" transform="translate(241 162)" fill="#C4C4C4"/>
</g>
<g id="Rectangle_17" filter="url(#filter16_d)">
<rect width="61" height="61" transform="translate(425 162)" fill="#C4C4C4"/>
</g>
<g id="Rectangle_18" filter="url(#filter17_d)">
<rect width="61" height="61" transform="translate(333 162)" fill="#219653"/>
</g>
<g id="Rectangle_19" filter="url(#filter18_d)">
<rect width="61" height="61" transform="translate(517 162)" fill="#C4C4C4"/>
</g>
<g id="Rectangle_20" filter="url(#filter19_d)">
<rect width="61" height="61" transform="translate(609 162)" fill="#C4C4C4"/>
</g>
<g id="Rectangle_21" filter="url(#filter20_d)">
<rect width="61" height="61" transform="translate(701 162)" fill="#219653"/>
</g>
<g id="Rectangle_22" filter="url(#filter21_d)">
<rect width="61" height="61" transform="translate(149 243)" fill="#219653"/>
</g>
<g id="Rectangle_23" filter="url(#filter22_d)">
<rect width="61" height="61" transform="translate(241 243)" fill="#219653"/>
</g>
<g id="Rectangle_24" filter="url(#filter23_d)">
<rect width="61" height="61" transform="translate(425 243)" fill="#219653"/>
</g>
<g id="Rectangle_25" filter="url(#filter24_d)">
<rect width="61" height="61" transform="translate(333 243)" fill="#C4C4C4"/>
</g>
<g id="Rectangle_26" filter="url(#filter25_d)">
<rect width="61" height="61" transform="translate(517 243)" fill="#C4C4C4"/>
</g>
<g id="Rectangle_27" filter="url(#filter26_d)">
<rect width="61" height="61" transform="translate(609 243)" fill="#219653"/>
</g>
<g id="Rectangle_28" filter="url(#filter27_d)">
<rect width="61" height="61" transform="translate(701 243)" fill="#C4C4C4"/>
</g>
<g id="Vector">
<path d="M 0.296296 0C 0.296296 0 -5.7037 15 36.2963 57C 64.9996 85.7033 59.2963 113 59.2963 113" transform="translate(271.704 311)" stroke="black"/>
</g>
<g id="Vector_2">
<path d="M 0.296296 0C 0.296296 0 -5.7037 15 36.2963 57C 64.9996 85.7033 59.2963 113 59.2963 113" transform="translate(457.758 309) scale(-1 1)" stroke="black"/>
</g>
<g id="Frequent Set">
<path d="M 11.8555 14.4648L 4.69531 14.4648L 4.69531 22L 2.44531 22L 2.44531 4.9375L 13.0156 4.9375L 13.0156 6.78906L 4.69531 6.78906L 4.69531 12.625L 11.8555 12.625L 11.8555 14.4648ZM 21.1953 11.2656C 20.8672 11.2109 20.5117 11.1836 20.1289 11.1836C 18.707 11.1836 17.7422 11.7891 17.2344 13L 17.2344 22L 15.0664 22L 15.0664 9.32031L 17.1758 9.32031L 17.2109 10.7852C 17.9219 9.65234 18.9297 9.08594 20.2344 9.08594C 20.6562 9.08594 20.9766 9.14062 21.1953 9.25L 21.1953 11.2656ZM 28.2266 22.2344C 26.5078 22.2344 25.1094 21.6719 24.0312 20.5469C 22.9531 19.4141 22.4141 17.9023 22.4141 16.0117L 22.4141 15.6133C 22.4141 14.3555 22.6523 13.2344 23.1289 12.25C 23.6133 11.2578 24.2852 10.4844 25.1445 9.92969C 26.0117 9.36719 26.9492 9.08594 27.957 9.08594C 29.6055 9.08594 30.8867 9.62891 31.8008 10.7148C 32.7148 11.8008 33.1719 13.3555 33.1719 15.3789L 33.1719 16.2812L 24.582 16.2812C 24.6133 17.5312 24.9766 18.543 25.6719 19.3164C 26.375 20.082 27.2656 20.4648 28.3438 20.4648C 29.1094 20.4648 29.7578 20.3086 30.2891 19.9961C 30.8203 19.6836 31.2852 19.2695 31.6836 18.7539L 33.0078 19.7852C 31.9453 21.418 30.3516 22.2344 28.2266 22.2344ZM 27.957 10.8672C 27.082 10.8672 26.3477 11.1875 25.7539 11.8281C 25.1602 12.4609 24.793 13.3516 24.6523 14.5L 31.0039 14.5L 31.0039 14.3359C 30.9414 13.2344 30.6445 12.3828 30.1133 11.7812C 29.582 11.1719 28.8633 10.8672 27.957 10.8672ZM 35.1641 15.5547C 35.1641 13.5625 35.6211 11.9883 36.5352 10.832C 37.4492 9.66797 38.6758 9.08594 40.2148 9.08594C 41.7148 9.08594 42.8984 9.58984 43.7656 10.5977L 43.8594 9.32031L 45.8516 9.32031L 45.8516 26.875L 43.6836 26.875L 43.6836 20.8281C 42.8086 21.7656 41.6445 22.2344 40.1914 22.2344C 38.6602 22.2344 37.4375 21.6406 36.5234 20.4531C 35.6172 19.2578 35.1641 17.6758 35.1641 15.707L 35.1641 15.5547ZM 37.332 15.8008C 37.332 17.2539 37.6367 18.3945 38.2461 19.2227C 38.8633 20.0508 39.6914 20.4648 40.7305 20.4648C 42.0195 20.4648 43.0039 19.8945 43.6836 18.7539L 43.6836 12.543C 42.9961 11.4258 42.0195 10.8672 40.7539 10.8672C 39.707 10.8672 38.875 11.2852 38.2578 12.1211C 37.6406 12.9492 37.332 14.1758 37.332 15.8008ZM 57.1602 20.7461C 56.3164 21.7383 55.0781 22.2344 53.4453 22.2344C 52.0938 22.2344 51.0625 21.8438 50.3516 21.0625C 49.6484 20.2734 49.293 19.1094 49.2852 17.5703L 49.2852 9.32031L 51.4531 9.32031L 51.4531 17.5117C 51.4531 19.4336 52.2344 20.3945 53.7969 20.3945C 55.4531 20.3945 56.5547 19.7773 57.1016 18.543L 57.1016 9.32031L 59.2695 9.32031L 59.2695 22L 57.207 22L 57.1602 20.7461ZM 67.8359 22.2344C 66.1172 22.2344 64.7188 21.6719 63.6406 20.5469C 62.5625 19.4141 62.0234 17.9023 62.0234 16.0117L 62.0234 15.6133C 62.0234 14.3555 62.2617 13.2344 62.7383 12.25C 63.2227 11.2578 63.8945 10.4844 64.7539 9.92969C 65.6211 9.36719 66.5586 9.08594 67.5664 9.08594C 69.2148 9.08594 70.4961 9.62891 71.4102 10.7148C 72.3242 11.8008 72.7812 13.3555 72.7812 15.3789L 72.7812 16.2812L 64.1914 16.2812C 64.2227 17.5312 64.5859 18.543 65.2812 19.3164C 65.9844 20.082 66.875 20.4648 67.9531 20.4648C 68.7188 20.4648 69.3672 20.3086 69.8984 19.9961C 70.4297 19.6836 70.8945 19.2695 71.293 18.7539L 72.6172 19.7852C 71.5547 21.418 69.9609 22.2344 67.8359 22.2344ZM 67.5664 10.8672C 66.6914 10.8672 65.957 11.1875 65.3633 11.8281C 64.7695 12.4609 64.4023 13.3516 64.2617 14.5L 70.6133 14.5L 70.6133 14.3359C 70.5508 13.2344 70.2539 12.3828 69.7227 11.7812C 69.1914 11.1719 68.4727 10.8672 67.5664 10.8672ZM 77.3516 9.32031L 77.4219 10.9141C 78.3906 9.69531 79.6562 9.08594 81.2188 9.08594C 83.8984 9.08594 85.25 10.5977 85.2734 13.6211L 85.2734 22L 83.1055 22L 83.1055 13.6094C 83.0977 12.6953 82.8867 12.0195 82.4727 11.582C 82.0664 11.1445 81.4297 10.9258 80.5625 10.9258C 79.8594 10.9258 79.2422 11.1133 78.7109 11.4883C 78.1797 11.8633 77.7656 12.3555 77.4688 12.9648L 77.4688 22L 75.3008 22L 75.3008 9.32031L 77.3516 9.32031ZM 91.4844 6.25L 91.4844 9.32031L 93.8516 9.32031L 93.8516 10.9961L 91.4844 10.9961L 91.4844 18.8594C 91.4844 19.3672 91.5898 19.75 91.8008 20.0078C 92.0117 20.2578 92.3711 20.3828 92.8789 20.3828C 93.1289 20.3828 93.4727 20.3359 93.9102 20.2422L 93.9102 22C 93.3398 22.1562 92.7852 22.2344 92.2461 22.2344C 91.2773 22.2344 90.5469 21.9414 90.0547 21.3555C 89.5625 20.7695 89.3164 19.9375 89.3164 18.8594L 89.3164 10.9961L 87.0078 10.9961L 87.0078 9.32031L 89.3164 9.32031L 89.3164 6.25L 91.4844 6.25ZM 107.715 14.3945C 105.785 13.8398 104.379 13.1602 103.496 12.3555C 102.621 11.543 102.184 10.543 102.184 9.35547C 102.184 8.01172 102.719 6.90234 103.789 6.02734C 104.867 5.14453 106.266 4.70312 107.984 4.70312C 109.156 4.70312 110.199 4.92969 111.113 5.38281C 112.035 5.83594 112.746 6.46094 113.246 7.25781C 113.754 8.05469 114.008 8.92578 114.008 9.87109L 111.746 9.87109C 111.746 8.83984 111.418 8.03125 110.762 7.44531C 110.105 6.85156 109.18 6.55469 107.984 6.55469C 106.875 6.55469 106.008 6.80078 105.383 7.29297C 104.766 7.77734 104.457 8.45312 104.457 9.32031C 104.457 10.0156 104.75 10.6055 105.336 11.0898C 105.93 11.5664 106.934 12.0039 108.348 12.4023C 109.77 12.8008 110.879 13.2422 111.676 13.7266C 112.48 14.2031 113.074 14.7617 113.457 15.4023C 113.848 16.043 114.043 16.7969 114.043 17.6641C 114.043 19.0469 113.504 20.1562 112.426 20.9922C 111.348 21.8203 109.906 22.2344 108.102 22.2344C 106.93 22.2344 105.836 22.0117 104.82 21.5664C 103.805 21.1133 103.02 20.4961 102.465 19.7148C 101.918 18.9336 101.645 18.0469 101.645 17.0547L 103.906 17.0547C 103.906 18.0859 104.285 18.9023 105.043 19.5039C 105.809 20.0977 106.828 20.3945 108.102 20.3945C 109.289 20.3945 110.199 20.1523 110.832 19.668C 111.465 19.1836 111.781 18.5234 111.781 17.6875C 111.781 16.8516 111.488 16.207 110.902 15.7539C 110.316 15.293 109.254 14.8398 107.715 14.3945ZM 121.859 22.2344C 120.141 22.2344 118.742 21.6719 117.664 20.5469C 116.586 19.4141 116.047 17.9023 116.047 16.0117L 116.047 15.6133C 116.047 14.3555 116.285 13.2344 116.762 12.25C 117.246 11.2578 117.918 10.4844 118.777 9.92969C 119.645 9.36719 120.582 9.08594 121.59 9.08594C 123.238 9.08594 124.52 9.62891 125.434 10.7148C 126.348 11.8008 126.805 13.3555 126.805 15.3789L 126.805 16.2812L 118.215 16.2812C 118.246 17.5312 118.609 18.543 119.305 19.3164C 120.008 20.082 120.898 20.4648 121.977 20.4648C 122.742 20.4648 123.391 20.3086 123.922 19.9961C 124.453 19.6836 124.918 19.2695 125.316 18.7539L 126.641 19.7852C 125.578 21.418 123.984 22.2344 121.859 22.2344ZM 121.59 10.8672C 120.715 10.8672 119.98 11.1875 119.387 11.8281C 118.793 12.4609 118.426 13.3516 118.285 14.5L 124.637 14.5L 124.637 14.3359C 124.574 13.2344 124.277 12.3828 123.746 11.7812C 123.215 11.1719 122.496 10.8672 121.59 10.8672ZM 132.266 6.25L 132.266 9.32031L 134.633 9.32031L 134.633 10.9961L 132.266 10.9961L 132.266 18.8594C 132.266 19.3672 132.371 19.75 132.582 20.0078C 132.793 20.2578 133.152 20.3828 133.66 20.3828C 133.91 20.3828 134.254 20.3359 134.691 20.2422L 134.691 22C 134.121 22.1562 133.566 22.2344 133.027 22.2344C 132.059 22.2344 131.328 21.9414 130.836 21.3555C 130.344 20.7695 130.098 19.9375 130.098 18.8594L 130.098 10.9961L 127.789 10.9961L 127.789 9.32031L 130.098 9.32031L 130.098 6.25L 132.266 6.25Z" transform="translate(298 424)" fill="black"/>
</g>
<g id="&#207;&#131; = 3" filter="url(#filter28_i)">
<path d="M 27.2344 23.2266L 20.5781 23.2266C 23.7031 25.5391 25.2656 28.8281 25.2656 33.0938L 25.2656 33.4922C 25.2656 35.6797 24.7891 37.6953 23.8359 39.5391C 22.8828 41.3672 21.5391 42.8125 19.8047 43.875C 18.0859 44.9375 16.1328 45.4688 13.9453 45.4688C 10.5391 45.4688 7.79688 44.2891 5.71875 41.9297C 3.64062 39.5547 2.60156 36.375 2.60156 32.3906L 2.60156 32.0859C 2.60156 29.7109 3.0625 27.5781 3.98438 25.6875C 4.90625 23.7969 6.21094 22.3203 7.89844 21.2578C 9.60156 20.1953 11.5469 19.6562 13.7344 19.6406L 27.2344 19.6406L 27.2344 23.2266ZM 6.96094 32.6016C 6.96094 35.4609 7.58594 37.7344 8.83594 39.4219C 10.0859 41.0938 11.7891 41.9297 13.9453 41.9297C 16.1172 41.9297 17.8203 41.0859 19.0547 39.3984C 20.3047 37.6953 20.9297 35.2578 20.9297 32.0859C 20.9297 29.3984 20.2969 27.25 19.0312 25.6406C 17.7812 24.0312 16.0703 23.2266 13.8984 23.2266C 11.7578 23.2266 10.0625 24.0234 8.8125 25.6172C 7.57812 27.2109 6.96094 29.5391 6.96094 32.6016ZM 62.5547 25.9219L 43.0078 25.9219L 43.0078 22.1484L 62.5547 22.1484L 62.5547 25.9219ZM 62.5547 35.6484L 43.0078 35.6484L 43.0078 31.8984L 62.5547 31.8984L 62.5547 35.6484ZM 86.8359 25.8281L 90.0938 25.8281C 92.1406 25.7969 93.75 25.2578 94.9219 24.2109C 96.0938 23.1641 96.6797 21.75 96.6797 19.9688C 96.6797 15.9687 94.6875 13.9688 90.7031 13.9688C 88.8281 13.9688 87.3281 14.5078 86.2031 15.5859C 85.0938 16.6484 84.5391 18.0625 84.5391 19.8281L 80.2031 19.8281C 80.2031 17.125 81.1875 14.8828 83.1562 13.1016C 85.1406 11.3047 87.6562 10.4062 90.7031 10.4062C 93.9219 10.4062 96.4453 11.2578 98.2734 12.9609C 100.102 14.6641 101.016 17.0312 101.016 20.0625C 101.016 21.5469 100.531 22.9844 99.5625 24.375C 98.6094 25.7656 97.3047 26.8047 95.6484 27.4922C 97.5234 28.0859 98.9688 29.0703 99.9844 30.4453C 101.016 31.8203 101.531 33.5 101.531 35.4844C 101.531 38.5469 100.531 40.9766 98.5312 42.7734C 96.5312 44.5703 93.9297 45.4688 90.7266 45.4688C 87.5234 45.4688 84.9141 44.6016 82.8984 42.8672C 80.8984 41.1328 79.8984 38.8438 79.8984 36L 84.2578 36C 84.2578 37.7969 84.8438 39.2344 86.0156 40.3125C 87.1875 41.3906 88.7578 41.9297 90.7266 41.9297C 92.8203 41.9297 94.4219 41.3828 95.5312 40.2891C 96.6406 39.1953 97.1953 37.625 97.1953 35.5781C 97.1953 33.5938 96.5859 32.0703 95.3672 31.0078C 94.1484 29.9453 92.3906 29.3984 90.0938 29.3672L 86.8359 29.3672L 86.8359 25.8281Z" transform="translate(-2 117)" fill="black"/>
</g>
<g id="Vector_3">
<path d="M 68.7336 0C 68.7336 0 51.6816 20.7701 32.3456 34C -5.6544 60 0.3456 85 0.3456 85" transform="translate(668.654 313)" stroke="black"/>
</g>
<g id="Not Frequent">
<path d="M 34.1484 22L 31.8867 22L 23.2969 8.85156L 23.2969 22L 21.0352 22L 21.0352 4.9375L 23.2969 4.9375L 31.9102 18.1445L 31.9102 4.9375L 34.1484 4.9375L 34.1484 22ZM 37.2305 15.543C 37.2305 14.3008 37.4727 13.1836 37.957 12.1914C 38.4492 11.1992 39.1289 10.4336 39.9961 9.89453C 40.8711 9.35547 41.8672 9.08594 42.9844 9.08594C 44.7109 9.08594 46.1055 9.68359 47.168 10.8789C 48.2383 12.0742 48.7734 13.6641 48.7734 15.6484L 48.7734 15.8008C 48.7734 17.0352 48.5352 18.1445 48.0586 19.1289C 47.5898 20.1055 46.9141 20.8672 46.0312 21.4141C 45.1562 21.9609 44.1484 22.2344 43.0078 22.2344C 41.2891 22.2344 39.8945 21.6367 38.8242 20.4414C 37.7617 19.2461 37.2305 17.6641 37.2305 15.6953L 37.2305 15.543ZM 39.4102 15.8008C 39.4102 17.207 39.7344 18.3359 40.3828 19.1875C 41.0391 20.0391 41.9141 20.4648 43.0078 20.4648C 44.1094 20.4648 44.9844 20.0352 45.6328 19.1758C 46.2812 18.3086 46.6055 17.0977 46.6055 15.543C 46.6055 14.1523 46.2734 13.0273 45.6094 12.168C 44.9531 11.3008 44.0781 10.8672 42.9844 10.8672C 41.9141 10.8672 41.0508 11.293 40.3945 12.1445C 39.7383 12.9961 39.4102 14.2148 39.4102 15.8008ZM 54.4336 6.25L 54.4336 9.32031L 56.8008 9.32031L 56.8008 10.9961L 54.4336 10.9961L 54.4336 18.8594C 54.4336 19.3672 54.5391 19.75 54.75 20.0078C 54.9609 20.2578 55.3203 20.3828 55.8281 20.3828C 56.0781 20.3828 56.4219 20.3359 56.8594 20.2422L 56.8594 22C 56.2891 22.1562 55.7344 22.2344 55.1953 22.2344C 54.2266 22.2344 53.4961 21.9414 53.0039 21.3555C 52.5117 20.7695 52.2656 19.9375 52.2656 18.8594L 52.2656 10.9961L 49.957 10.9961L 49.957 9.32031L 52.2656 9.32031L 52.2656 6.25L 54.4336 6.25ZM 75.0469 14.4648L 67.8867 14.4648L 67.8867 22L 65.6367 22L 65.6367 4.9375L 76.207 4.9375L 76.207 6.78906L 67.8867 6.78906L 67.8867 12.625L 75.0469 12.625L 75.0469 14.4648ZM 84.3867 11.2656C 84.0586 11.2109 83.7031 11.1836 83.3203 11.1836C 81.8984 11.1836 80.9336 11.7891 80.4258 13L 80.4258 22L 78.2578 22L 78.2578 9.32031L 80.3672 9.32031L 80.4023 10.7852C 81.1133 9.65234 82.1211 9.08594 83.4258 9.08594C 83.8477 9.08594 84.168 9.14062 84.3867 9.25L 84.3867 11.2656ZM 91.418 22.2344C 89.6992 22.2344 88.3008 21.6719 87.2227 20.5469C 86.1445 19.4141 85.6055 17.9023 85.6055 16.0117L 85.6055 15.6133C 85.6055 14.3555 85.8438 13.2344 86.3203 12.25C 86.8047 11.2578 87.4766 10.4844 88.3359 9.92969C 89.2031 9.36719 90.1406 9.08594 91.1484 9.08594C 92.7969 9.08594 94.0781 9.62891 94.9922 10.7148C 95.9062 11.8008 96.3633 13.3555 96.3633 15.3789L 96.3633 16.2812L 87.7734 16.2812C 87.8047 17.5312 88.168 18.543 88.8633 19.3164C 89.5664 20.082 90.457 20.4648 91.5352 20.4648C 92.3008 20.4648 92.9492 20.3086 93.4805 19.9961C 94.0117 19.6836 94.4766 19.2695 94.875 18.7539L 96.1992 19.7852C 95.1367 21.418 93.543 22.2344 91.418 22.2344ZM 91.1484 10.8672C 90.2734 10.8672 89.5391 11.1875 88.9453 11.8281C 88.3516 12.4609 87.9844 13.3516 87.8438 14.5L 94.1953 14.5L 94.1953 14.3359C 94.1328 13.2344 93.8359 12.3828 93.3047 11.7812C 92.7734 11.1719 92.0547 10.8672 91.1484 10.8672ZM 98.3555 15.5547C 98.3555 13.5625 98.8125 11.9883 99.7266 10.832C 100.641 9.66797 101.867 9.08594 103.406 9.08594C 104.906 9.08594 106.09 9.58984 106.957 10.5977L 107.051 9.32031L 109.043 9.32031L 109.043 26.875L 106.875 26.875L 106.875 20.8281C 106 21.7656 104.836 22.2344 103.383 22.2344C 101.852 22.2344 100.629 21.6406 99.7148 20.4531C 98.8086 19.2578 98.3555 17.6758 98.3555 15.707L 98.3555 15.5547ZM 100.523 15.8008C 100.523 17.2539 100.828 18.3945 101.438 19.2227C 102.055 20.0508 102.883 20.4648 103.922 20.4648C 105.211 20.4648 106.195 19.8945 106.875 18.7539L 106.875 12.543C 106.188 11.4258 105.211 10.8672 103.945 10.8672C 102.898 10.8672 102.066 11.2852 101.449 12.1211C 100.832 12.9492 100.523 14.1758 100.523 15.8008ZM 120.352 20.7461C 119.508 21.7383 118.27 22.2344 116.637 22.2344C 115.285 22.2344 114.254 21.8438 113.543 21.0625C 112.84 20.2734 112.484 19.1094 112.477 17.5703L 112.477 9.32031L 114.645 9.32031L 114.645 17.5117C 114.645 19.4336 115.426 20.3945 116.988 20.3945C 118.645 20.3945 119.746 19.7773 120.293 18.543L 120.293 9.32031L 122.461 9.32031L 122.461 22L 120.398 22L 120.352 20.7461ZM 131.027 22.2344C 129.309 22.2344 127.91 21.6719 126.832 20.5469C 125.754 19.4141 125.215 17.9023 125.215 16.0117L 125.215 15.6133C 125.215 14.3555 125.453 13.2344 125.93 12.25C 126.414 11.2578 127.086 10.4844 127.945 9.92969C 128.812 9.36719 129.75 9.08594 130.758 9.08594C 132.406 9.08594 133.688 9.62891 134.602 10.7148C 135.516 11.8008 135.973 13.3555 135.973 15.3789L 135.973 16.2812L 127.383 16.2812C 127.414 17.5312 127.777 18.543 128.473 19.3164C 129.176 20.082 130.066 20.4648 131.145 20.4648C 131.91 20.4648 132.559 20.3086 133.09 19.9961C 133.621 19.6836 134.086 19.2695 134.484 18.7539L 135.809 19.7852C 134.746 21.418 133.152 22.2344 131.027 22.2344ZM 130.758 10.8672C 129.883 10.8672 129.148 11.1875 128.555 11.8281C 127.961 12.4609 127.594 13.3516 127.453 14.5L 133.805 14.5L 133.805 14.3359C 133.742 13.2344 133.445 12.3828 132.914 11.7812C 132.383 11.1719 131.664 10.8672 130.758 10.8672ZM 140.543 9.32031L 140.613 10.9141C 141.582 9.69531 142.848 9.08594 144.41 9.08594C 147.09 9.08594 148.441 10.5977 148.465 13.6211L 148.465 22L 146.297 22L 146.297 13.6094C 146.289 12.6953 146.078 12.0195 145.664 11.582C 145.258 11.1445 144.621 10.9258 143.754 10.9258C 143.051 10.9258 142.434 11.1133 141.902 11.4883C 141.371 11.8633 140.957 12.3555 140.66 12.9648L 140.66 22L 138.492 22L 138.492 9.32031L 140.543 9.32031ZM 154.676 6.25L 154.676 9.32031L 157.043 9.32031L 157.043 10.9961L 154.676 10.9961L 154.676 18.8594C 154.676 19.3672 154.781 19.75 154.992 20.0078C 155.203 20.2578 155.562 20.3828 156.07 20.3828C 156.32 20.3828 156.664 20.3359 157.102 20.2422L 157.102 22C 156.531 22.1562 155.977 22.2344 155.438 22.2344C 154.469 22.2344 153.738 21.9414 153.246 21.3555C 152.754 20.7695 152.508 19.9375 152.508 18.8594L 152.508 10.9961L 150.199 10.9961L 150.199 9.32031L 152.508 9.32031L 152.508 6.25L 154.676 6.25Z" transform="translate(578 400)" fill="black"/>
</g>
</g>
</g>
<defs>
<filter id="filter0_d" x="149" y="0" width="65" height="65" filterUnits="userSpaceOnUse" color-interpolation-filters="sRGB">
<feFlood flood-opacity="0" result="BackgroundImageFix"/>
<feColorMatrix in="SourceAlpha" type="matrix" values="0 0 0 0 0 0 0 0 0 0 0 0 0 0 0 0 0 0 255 0"/>
<feOffset dx="2" dy="2"/>
<feGaussianBlur stdDeviation="1"/>
<feColorMatrix type="matrix" values="0 0 0 0 0 0 0 0 0 0 0 0 0 0 0 0 0 0 0.25 0"/>
<feBlend mode="normal" in2="BackgroundImageFix" result="effect1_dropShadow"/>
<feBlend mode="normal" in="SourceGraphic" in2="effect1_dropShadow" result="shape"/>
</filter>
<filter id="filter1_d" x="241" y="0" width="65" height="65" filterUnits="userSpaceOnUse" color-interpolation-filters="sRGB">
<feFlood flood-opacity="0" result="BackgroundImageFix"/>
<feColorMatrix in="SourceAlpha" type="matrix" values="0 0 0 0 0 0 0 0 0 0 0 0 0 0 0 0 0 0 255 0"/>
<feOffset dx="2" dy="2"/>
<feGaussianBlur stdDeviation="1"/>
<feColorMatrix type="matrix" values="0 0 0 0 0 0 0 0 0 0 0 0 0 0 0 0 0 0 0.25 0"/>
<feBlend mode="normal" in2="BackgroundImageFix" result="effect1_dropShadow"/>
<feBlend mode="normal" in="SourceGraphic" in2="effect1_dropShadow" result="shape"/>
</filter>
<filter id="filter2_d" x="425" y="0" width="65" height="65" filterUnits="userSpaceOnUse" color-interpolation-filters="sRGB">
<feFlood flood-opacity="0" result="BackgroundImageFix"/>
<feColorMatrix in="SourceAlpha" type="matrix" values="0 0 0 0 0 0 0 0 0 0 0 0 0 0 0 0 0 0 255 0"/>
<feOffset dx="2" dy="2"/>
<feGaussianBlur stdDeviation="1"/>
<feColorMatrix type="matrix" values="0 0 0 0 0 0 0 0 0 0 0 0 0 0 0 0 0 0 0.25 0"/>
<feBlend mode="normal" in2="BackgroundImageFix" result="effect1_dropShadow"/>
<feBlend mode="normal" in="SourceGraphic" in2="effect1_dropShadow" result="shape"/>
</filter>
<filter id="filter3_d" x="333" y="0" width="65" height="65" filterUnits="userSpaceOnUse" color-interpolation-filters="sRGB">
<feFlood flood-opacity="0" result="BackgroundImageFix"/>
<feColorMatrix in="SourceAlpha" type="matrix" values="0 0 0 0 0 0 0 0 0 0 0 0 0 0 0 0 0 0 255 0"/>
<feOffset dx="2" dy="2"/>
<feGaussianBlur stdDeviation="1"/>
<feColorMatrix type="matrix" values="0 0 0 0 0 0 0 0 0 0 0 0 0 0 0 0 0 0 0.25 0"/>
<feBlend mode="normal" in2="BackgroundImageFix" result="effect1_dropShadow"/>
<feBlend mode="normal" in="SourceGraphic" in2="effect1_dropShadow" result="shape"/>
</filter>
<filter id="filter4_d" x="517" y="0" width="65" height="65" filterUnits="userSpaceOnUse" color-interpolation-filters="sRGB">
<feFlood flood-opacity="0" result="BackgroundImageFix"/>
<feColorMatrix in="SourceAlpha" type="matrix" values="0 0 0 0 0 0 0 0 0 0 0 0 0 0 0 0 0 0 255 0"/>
<feOffset dx="2" dy="2"/>
<feGaussianBlur stdDeviation="1"/>
<feColorMatrix type="matrix" values="0 0 0 0 0 0 0 0 0 0 0 0 0 0 0 0 0 0 0.25 0"/>
<feBlend mode="normal" in2="BackgroundImageFix" result="effect1_dropShadow"/>
<feBlend mode="normal" in="SourceGraphic" in2="effect1_dropShadow" result="shape"/>
</filter>
<filter id="filter5_d" x="609" y="0" width="65" height="65" filterUnits="userSpaceOnUse" color-interpolation-filters="sRGB">
<feFlood flood-opacity="0" result="BackgroundImageFix"/>
<feColorMatrix in="SourceAlpha" type="matrix" values="0 0 0 0 0 0 0 0 0 0 0 0 0 0 0 0 0 0 255 0"/>
<feOffset dx="2" dy="2"/>
<feGaussianBlur stdDeviation="1"/>
<feColorMatrix type="matrix" values="0 0 0 0 0 0 0 0 0 0 0 0 0 0 0 0 0 0 0.25 0"/>
<feBlend mode="normal" in2="BackgroundImageFix" result="effect1_dropShadow"/>
<feBlend mode="normal" in="SourceGraphic" in2="effect1_dropShadow" result="shape"/>
</filter>
<filter id="filter6_d" x="701" y="0" width="65" height="65" filterUnits="userSpaceOnUse" color-interpolation-filters="sRGB">
<feFlood flood-opacity="0" result="BackgroundImageFix"/>
<feColorMatrix in="SourceAlpha" type="matrix" values="0 0 0 0 0 0 0 0 0 0 0 0 0 0 0 0 0 0 255 0"/>
<feOffset dx="2" dy="2"/>
<feGaussianBlur stdDeviation="1"/>
<feColorMatrix type="matrix" values="0 0 0 0 0 0 0 0 0 0 0 0 0 0 0 0 0 0 0.25 0"/>
<feBlend mode="normal" in2="BackgroundImageFix" result="effect1_dropShadow"/>
<feBlend mode="normal" in="SourceGraphic" in2="effect1_dropShadow" result="shape"/>
</filter>
<filter id="filter7_d" x="149" y="81" width="65" height="65" filterUnits="userSpaceOnUse" color-interpolation-filters="sRGB">
<feFlood flood-opacity="0" result="BackgroundImageFix"/>
<feColorMatrix in="SourceAlpha" type="matrix" values="0 0 0 0 0 0 0 0 0 0 0 0 0 0 0 0 0 0 255 0"/>
<feOffset dx="2" dy="2"/>
<feGaussianBlur stdDeviation="1"/>
<feColorMatrix type="matrix" values="0 0 0 0 0 0 0 0 0 0 0 0 0 0 0 0 0 0 0.25 0"/>
<feBlend mode="normal" in2="BackgroundImageFix" result="effect1_dropShadow"/>
<feBlend mode="normal" in="SourceGraphic" in2="effect1_dropShadow" result="shape"/>
</filter>
<filter id="filter8_d" x="241" y="81" width="65" height="65" filterUnits="userSpaceOnUse" color-interpolation-filters="sRGB">
<feFlood flood-opacity="0" result="BackgroundImageFix"/>
<feColorMatrix in="SourceAlpha" type="matrix" values="0 0 0 0 0 0 0 0 0 0 0 0 0 0 0 0 0 0 255 0"/>
<feOffset dx="2" dy="2"/>
<feGaussianBlur stdDeviation="1"/>
<feColorMatrix type="matrix" values="0 0 0 0 0 0 0 0 0 0 0 0 0 0 0 0 0 0 0.25 0"/>
<feBlend mode="normal" in2="BackgroundImageFix" result="effect1_dropShadow"/>
<feBlend mode="normal" in="SourceGraphic" in2="effect1_dropShadow" result="shape"/>
</filter>
<filter id="filter9_d" x="425" y="81" width="65" height="65" filterUnits="userSpaceOnUse" color-interpolation-filters="sRGB">
<feFlood flood-opacity="0" result="BackgroundImageFix"/>
<feColorMatrix in="SourceAlpha" type="matrix" values="0 0 0 0 0 0 0 0 0 0 0 0 0 0 0 0 0 0 255 0"/>
<feOffset dx="2" dy="2"/>
<feGaussianBlur stdDeviation="1"/>
<feColorMatrix type="matrix" values="0 0 0 0 0 0 0 0 0 0 0 0 0 0 0 0 0 0 0.25 0"/>
<feBlend mode="normal" in2="BackgroundImageFix" result="effect1_dropShadow"/>
<feBlend mode="normal" in="SourceGraphic" in2="effect1_dropShadow" result="shape"/>
</filter>
<filter id="filter10_d" x="333" y="81" width="65" height="65" filterUnits="userSpaceOnUse" color-interpolation-filters="sRGB">
<feFlood flood-opacity="0" result="BackgroundImageFix"/>
<feColorMatrix in="SourceAlpha" type="matrix" values="0 0 0 0 0 0 0 0 0 0 0 0 0 0 0 0 0 0 255 0"/>
<feOffset dx="2" dy="2"/>
<feGaussianBlur stdDeviation="1"/>
<feColorMatrix type="matrix" values="0 0 0 0 0 0 0 0 0 0 0 0 0 0 0 0 0 0 0.25 0"/>
<feBlend mode="normal" in2="BackgroundImageFix" result="effect1_dropShadow"/>
<feBlend mode="normal" in="SourceGraphic" in2="effect1_dropShadow" result="shape"/>
</filter>
<filter id="filter11_d" x="517" y="81" width="65" height="65" filterUnits="userSpaceOnUse" color-interpolation-filters="sRGB">
<feFlood flood-opacity="0" result="BackgroundImageFix"/>
<feColorMatrix in="SourceAlpha" type="matrix" values="0 0 0 0 0 0 0 0 0 0 0 0 0 0 0 0 0 0 255 0"/>
<feOffset dx="2" dy="2"/>
<feGaussianBlur stdDeviation="1"/>
<feColorMatrix type="matrix" values="0 0 0 0 0 0 0 0 0 0 0 0 0 0 0 0 0 0 0.25 0"/>
<feBlend mode="normal" in2="BackgroundImageFix" result="effect1_dropShadow"/>
<feBlend mode="normal" in="SourceGraphic" in2="effect1_dropShadow" result="shape"/>
</filter>
<filter id="filter12_d" x="609" y="81" width="65" height="65" filterUnits="userSpaceOnUse" color-interpolation-filters="sRGB">
<feFlood flood-opacity="0" result="BackgroundImageFix"/>
<feColorMatrix in="SourceAlpha" type="matrix" values="0 0 0 0 0 0 0 0 0 0 0 0 0 0 0 0 0 0 255 0"/>
<feOffset dx="2" dy="2"/>
<feGaussianBlur stdDeviation="1"/>
<feColorMatrix type="matrix" values="0 0 0 0 0 0 0 0 0 0 0 0 0 0 0 0 0 0 0.25 0"/>
<feBlend mode="normal" in2="BackgroundImageFix" result="effect1_dropShadow"/>
<feBlend mode="normal" in="SourceGraphic" in2="effect1_dropShadow" result="shape"/>
</filter>
<filter id="filter13_d" x="701" y="81" width="65" height="65" filterUnits="userSpaceOnUse" color-interpolation-filters="sRGB">
<feFlood flood-opacity="0" result="BackgroundImageFix"/>
<feColorMatrix in="SourceAlpha" type="matrix" values="0 0 0 0 0 0 0 0 0 0 0 0 0 0 0 0 0 0 255 0"/>
<feOffset dx="2" dy="2"/>
<feGaussianBlur stdDeviation="1"/>
<feColorMatrix type="matrix" values="0 0 0 0 0 0 0 0 0 0 0 0 0 0 0 0 0 0 0.25 0"/>
<feBlend mode="normal" in2="BackgroundImageFix" result="effect1_dropShadow"/>
<feBlend mode="normal" in="SourceGraphic" in2="effect1_dropShadow" result="shape"/>
</filter>
<filter id="filter14_d" x="149" y="162" width="65" height="65" filterUnits="userSpaceOnUse" color-interpolation-filters="sRGB">
<feFlood flood-opacity="0" result="BackgroundImageFix"/>
<feColorMatrix in="SourceAlpha" type="matrix" values="0 0 0 0 0 0 0 0 0 0 0 0 0 0 0 0 0 0 255 0"/>
<feOffset dx="2" dy="2"/>
<feGaussianBlur stdDeviation="1"/>
<feColorMatrix type="matrix" values="0 0 0 0 0 0 0 0 0 0 0 0 0 0 0 0 0 0 0.25 0"/>
<feBlend mode="normal" in2="BackgroundImageFix" result="effect1_dropShadow"/>
<feBlend mode="normal" in="SourceGraphic" in2="effect1_dropShadow" result="shape"/>
</filter>
<filter id="filter15_d" x="241" y="162" width="65" height="65" filterUnits="userSpaceOnUse" color-interpolation-filters="sRGB">
<feFlood flood-opacity="0" result="BackgroundImageFix"/>
<feColorMatrix in="SourceAlpha" type="matrix" values="0 0 0 0 0 0 0 0 0 0 0 0 0 0 0 0 0 0 255 0"/>
<feOffset dx="2" dy="2"/>
<feGaussianBlur stdDeviation="1"/>
<feColorMatrix type="matrix" values="0 0 0 0 0 0 0 0 0 0 0 0 0 0 0 0 0 0 0.25 0"/>
<feBlend mode="normal" in2="BackgroundImageFix" result="effect1_dropShadow"/>
<feBlend mode="normal" in="SourceGraphic" in2="effect1_dropShadow" result="shape"/>
</filter>
<filter id="filter16_d" x="425" y="162" width="65" height="65" filterUnits="userSpaceOnUse" color-interpolation-filters="sRGB">
<feFlood flood-opacity="0" result="BackgroundImageFix"/>
<feColorMatrix in="SourceAlpha" type="matrix" values="0 0 0 0 0 0 0 0 0 0 0 0 0 0 0 0 0 0 255 0"/>
<feOffset dx="2" dy="2"/>
<feGaussianBlur stdDeviation="1"/>
<feColorMatrix type="matrix" values="0 0 0 0 0 0 0 0 0 0 0 0 0 0 0 0 0 0 0.25 0"/>
<feBlend mode="normal" in2="BackgroundImageFix" result="effect1_dropShadow"/>
<feBlend mode="normal" in="SourceGraphic" in2="effect1_dropShadow" result="shape"/>
</filter>
<filter id="filter17_d" x="333" y="162" width="65" height="65" filterUnits="userSpaceOnUse" color-interpolation-filters="sRGB">
<feFlood flood-opacity="0" result="BackgroundImageFix"/>
<feColorMatrix in="SourceAlpha" type="matrix" values="0 0 0 0 0 0 0 0 0 0 0 0 0 0 0 0 0 0 255 0"/>
<feOffset dx="2" dy="2"/>
<feGaussianBlur stdDeviation="1"/>
<feColorMatrix type="matrix" values="0 0 0 0 0 0 0 0 0 0 0 0 0 0 0 0 0 0 0.25 0"/>
<feBlend mode="normal" in2="BackgroundImageFix" result="effect1_dropShadow"/>
<feBlend mode="normal" in="SourceGraphic" in2="effect1_dropShadow" result="shape"/>
</filter>
<filter id="filter18_d" x="517" y="162" width="65" height="65" filterUnits="userSpaceOnUse" color-interpolation-filters="sRGB">
<feFlood flood-opacity="0" result="BackgroundImageFix"/>
<feColorMatrix in="SourceAlpha" type="matrix" values="0 0 0 0 0 0 0 0 0 0 0 0 0 0 0 0 0 0 255 0"/>
<feOffset dx="2" dy="2"/>
<feGaussianBlur stdDeviation="1"/>
<feColorMatrix type="matrix" values="0 0 0 0 0 0 0 0 0 0 0 0 0 0 0 0 0 0 0.25 0"/>
<feBlend mode="normal" in2="BackgroundImageFix" result="effect1_dropShadow"/>
<feBlend mode="normal" in="SourceGraphic" in2="effect1_dropShadow" result="shape"/>
</filter>
<filter id="filter19_d" x="609" y="162" width="65" height="65" filterUnits="userSpaceOnUse" color-interpolation-filters="sRGB">
<feFlood flood-opacity="0" result="BackgroundImageFix"/>
<feColorMatrix in="SourceAlpha" type="matrix" values="0 0 0 0 0 0 0 0 0 0 0 0 0 0 0 0 0 0 255 0"/>
<feOffset dx="2" dy="2"/>
<feGaussianBlur stdDeviation="1"/>
<feColorMatrix type="matrix" values="0 0 0 0 0 0 0 0 0 0 0 0 0 0 0 0 0 0 0.25 0"/>
<feBlend mode="normal" in2="BackgroundImageFix" result="effect1_dropShadow"/>
<feBlend mode="normal" in="SourceGraphic" in2="effect1_dropShadow" result="shape"/>
</filter>
<filter id="filter20_d" x="701" y="162" width="65" height="65" filterUnits="userSpaceOnUse" color-interpolation-filters="sRGB">
<feFlood flood-opacity="0" result="BackgroundImageFix"/>
<feColorMatrix in="SourceAlpha" type="matrix" values="0 0 0 0 0 0 0 0 0 0 0 0 0 0 0 0 0 0 255 0"/>
<feOffset dx="2" dy="2"/>
<feGaussianBlur stdDeviation="1"/>
<feColorMatrix type="matrix" values="0 0 0 0 0 0 0 0 0 0 0 0 0 0 0 0 0 0 0.25 0"/>
<feBlend mode="normal" in2="BackgroundImageFix" result="effect1_dropShadow"/>
<feBlend mode="normal" in="SourceGraphic" in2="effect1_dropShadow" result="shape"/>
</filter>
<filter id="filter21_d" x="149" y="243" width="65" height="65" filterUnits="userSpaceOnUse" color-interpolation-filters="sRGB">
<feFlood flood-opacity="0" result="BackgroundImageFix"/>
<feColorMatrix in="SourceAlpha" type="matrix" values="0 0 0 0 0 0 0 0 0 0 0 0 0 0 0 0 0 0 255 0"/>
<feOffset dx="2" dy="2"/>
<feGaussianBlur stdDeviation="1"/>
<feColorMatrix type="matrix" values="0 0 0 0 0 0 0 0 0 0 0 0 0 0 0 0 0 0 0.25 0"/>
<feBlend mode="normal" in2="BackgroundImageFix" result="effect1_dropShadow"/>
<feBlend mode="normal" in="SourceGraphic" in2="effect1_dropShadow" result="shape"/>
</filter>
<filter id="filter22_d" x="241" y="243" width="65" height="65" filterUnits="userSpaceOnUse" color-interpolation-filters="sRGB">
<feFlood flood-opacity="0" result="BackgroundImageFix"/>
<feColorMatrix in="SourceAlpha" type="matrix" values="0 0 0 0 0 0 0 0 0 0 0 0 0 0 0 0 0 0 255 0"/>
<feOffset dx="2" dy="2"/>
<feGaussianBlur stdDeviation="1"/>
<feColorMatrix type="matrix" values="0 0 0 0 0 0 0 0 0 0 0 0 0 0 0 0 0 0 0.25 0"/>
<feBlend mode="normal" in2="BackgroundImageFix" result="effect1_dropShadow"/>
<feBlend mode="normal" in="SourceGraphic" in2="effect1_dropShadow" result="shape"/>
</filter>
<filter id="filter23_d" x="425" y="243" width="65" height="65" filterUnits="userSpaceOnUse" color-interpolation-filters="sRGB">
<feFlood flood-opacity="0" result="BackgroundImageFix"/>
<feColorMatrix in="SourceAlpha" type="matrix" values="0 0 0 0 0 0 0 0 0 0 0 0 0 0 0 0 0 0 255 0"/>
<feOffset dx="2" dy="2"/>
<feGaussianBlur stdDeviation="1"/>
<feColorMatrix type="matrix" values="0 0 0 0 0 0 0 0 0 0 0 0 0 0 0 0 0 0 0.25 0"/>
<feBlend mode="normal" in2="BackgroundImageFix" result="effect1_dropShadow"/>
<feBlend mode="normal" in="SourceGraphic" in2="effect1_dropShadow" result="shape"/>
</filter>
<filter id="filter24_d" x="333" y="243" width="65" height="65" filterUnits="userSpaceOnUse" color-interpolation-filters="sRGB">
<feFlood flood-opacity="0" result="BackgroundImageFix"/>
<feColorMatrix in="SourceAlpha" type="matrix" values="0 0 0 0 0 0 0 0 0 0 0 0 0 0 0 0 0 0 255 0"/>
<feOffset dx="2" dy="2"/>
<feGaussianBlur stdDeviation="1"/>
<feColorMatrix type="matrix" values="0 0 0 0 0 0 0 0 0 0 0 0 0 0 0 0 0 0 0.25 0"/>
<feBlend mode="normal" in2="BackgroundImageFix" result="effect1_dropShadow"/>
<feBlend mode="normal" in="SourceGraphic" in2="effect1_dropShadow" result="shape"/>
</filter>
<filter id="filter25_d" x="517" y="243" width="65" height="65" filterUnits="userSpaceOnUse" color-interpolation-filters="sRGB">
<feFlood flood-opacity="0" result="BackgroundImageFix"/>
<feColorMatrix in="SourceAlpha" type="matrix" values="0 0 0 0 0 0 0 0 0 0 0 0 0 0 0 0 0 0 255 0"/>
<feOffset dx="2" dy="2"/>
<feGaussianBlur stdDeviation="1"/>
<feColorMatrix type="matrix" values="0 0 0 0 0 0 0 0 0 0 0 0 0 0 0 0 0 0 0.25 0"/>
<feBlend mode="normal" in2="BackgroundImageFix" result="effect1_dropShadow"/>
<feBlend mode="normal" in="SourceGraphic" in2="effect1_dropShadow" result="shape"/>
</filter>
<filter id="filter26_d" x="609" y="243" width="65" height="65" filterUnits="userSpaceOnUse" color-interpolation-filters="sRGB">
<feFlood flood-opacity="0" result="BackgroundImageFix"/>
<feColorMatrix in="SourceAlpha" type="matrix" values="0 0 0 0 0 0 0 0 0 0 0 0 0 0 0 0 0 0 255 0"/>
<feOffset dx="2" dy="2"/>
<feGaussianBlur stdDeviation="1"/>
<feColorMatrix type="matrix" values="0 0 0 0 0 0 0 0 0 0 0 0 0 0 0 0 0 0 0.25 0"/>
<feBlend mode="normal" in2="BackgroundImageFix" result="effect1_dropShadow"/>
<feBlend mode="normal" in="SourceGraphic" in2="effect1_dropShadow" result="shape"/>
</filter>
<filter id="filter27_d" x="701" y="243" width="65" height="65" filterUnits="userSpaceOnUse" color-interpolation-filters="sRGB">
<feFlood flood-opacity="0" result="BackgroundImageFix"/>
<feColorMatrix in="SourceAlpha" type="matrix" values="0 0 0 0 0 0 0 0 0 0 0 0 0 0 0 0 0 0 255 0"/>
<feOffset dx="2" dy="2"/>
<feGaussianBlur stdDeviation="1"/>
<feColorMatrix type="matrix" values="0 0 0 0 0 0 0 0 0 0 0 0 0 0 0 0 0 0 0.25 0"/>
<feBlend mode="normal" in2="BackgroundImageFix" result="effect1_dropShadow"/>
<feBlend mode="normal" in="SourceGraphic" in2="effect1_dropShadow" result="shape"/>
</filter>
<filter id="filter28_i" x="0.601562" y="127.406" width="98.9297" height="39.0625" filterUnits="userSpaceOnUse" color-interpolation-filters="sRGB">
<feFlood flood-opacity="0" result="BackgroundImageFix"/>
<feBlend mode="normal" in="SourceGraphic" in2="BackgroundImageFix" result="shape"/>
<feColorMatrix in="SourceAlpha" type="matrix" values="0 0 0 0 0 0 0 0 0 0 0 0 0 0 0 0 0 0 255 0" result="hardAlpha"/>
<feOffset dy="4"/>
<feGaussianBlur stdDeviation="2"/>
<feComposite in2="hardAlpha" operator="arithmetic" k2="-1" k3="1"/>
<feColorMatrix type="matrix" values="0 0 0 0 0 0 0 0 0 0 0 0 0 0 0 0 0 0 0.25 0"/>
<feBlend mode="normal" in2="shape" result="effect1_innerShadow"/>
</filter>

</defs>
</svg>

